<svg id="Capa_1" data-name="Capa 1" xmlns="http://www.w3.org/2000/svg" viewBox="0 0 600 592"><defs><style>.cls-1{fill:#f4b0823d;}</style></defs><path class="cls-1" d="M134,45.14c3,4,7.61,6.14,11.29,9.36,1.36,1.19,2.32-.57,3.28-1.38,5.58-4.67,11.47-4.34,16.14,1.07a23,23,0,0,0,5.91,4.51,3,3,0,0,0,3.32-.22,1.77,1.77,0,0,0,.5-2.61c-1.31-2.18-1.56-4,1.36-5.11,2.65-1,5.18-1.31,7.35,1,5.3,5.66,2.69,14.87-4.77,17.3-5.86,1.9-11.43.91-17-1.06a4.32,4.32,0,0,0-3.43.25c4.24,5,8.17,10.23,12.84,14.74,2.68,2.58,7.51.65,10.64,3.28a22.61,22.61,0,0,0,1.5-1.89c5.08-8.17,13.2-10.64,22.32-6.65,3.2,1.4,6.22,3.22,9.43,4.59C220,84.62,226.46,81.75,227,77c.22-2,.24-3.68-2.77-3a21.78,21.78,0,0,1-5.48.1,4.5,4.5,0,0,1-4.53-3.86c-.42-2.38-.62-4.82,2.33-6.41,10.53-5.66,20.75,2.42,22.37,11.61C242,92.84,227.35,106,212.53,105.22a84.36,84.36,0,0,1-22.09-4c.07,3.19,2.43,3.88,4.1,4.82a80,80,0,0,0,29.14,9.26c6,.79,11.43.36,16.73-2.42a9.63,9.63,0,0,0,2.77-2c1.91-2.08,2.7-6.11,7.42-2.51,1.9,1.46,5.35-2.31,7.17-4.88,1.22-1.72,2-4.66,4.66-2.82,2.15,1.5,4.48,3.83,3.13,7.14-.86,2.11-1.59,4.41-3.95,5.56-.71.34-1.48,1-1,2s1.38.73,2.18.78c3.43.23,8.26-4.25,9.18-8.56a42.21,42.21,0,0,0,.93-13.85c-.24-2.06.32-2.48,2.27-2.62,7.1-.52,11.76,3.65,11.9,10.77a78.78,78.78,0,0,1-.61,9.19c8.77-9.49,19.3-10.36,32-7.89-7.57,4-13.07,8.59-15.43,15.95h0c-1.68.15-3.13.86-2.78,2.72s2.4,1.89,3.68,2c5.9.64,10.61,3.8,15.17,7.07,5.92,4.24,6.78,12.88,2.1,17.47-2.59,2.54-5.74,3.79-9.05,2-3.55-1.9-3.93-5.06-2-8.55,1.55-2.84-.4-3.91-2.55-4.74a23.58,23.58,0,0,0-13.77-.62,58.64,58.64,0,0,1-14.78,1.6c-2.45-1-4.14,3.2-7.16.69-2.29-1.9-4.32-3.41-3.83-6.68,9.68.31,19.24-1.71,29-1.52-5.57-1.93-11.34-2.38-17-2.63-.4-1.74,2.17-1.81,1.44-3-1-1.66-2.37-.24-3.48.12-11.75,3.82-23.52,3-36,.56,2.48-3.08,6.36-3.26,9.48-6.82-8.68,1.93-15.75,4.59-23.29,2.4a3.66,3.66,0,0,0-4.14.94c-2.19.13-4.44.16-5,3l-2,0c-4.44-1-8.75-.26-13,1.06-1.84-1.2-3.81-2.51-4-4.83-.38-4.85-4-6.82-7.38-9.16-7.92-5.4-13.76-12.88-20.61-21.43,0,4.16-.08,7.15,0,10.14.38,11.72-9.82,19.73-22.19,18.2-2.09-.26-2.54-1.23-2.21-3.43a34.31,34.31,0,0,1,9-18.53c1.46-1.59,3.14-3,4.52-4.65,3.08-3.72,3.65-7.58.67-11.8-9.18-13-19.88-24.55-34-32.14S98.5,37.12,82.26,40.1a10.89,10.89,0,0,0-1.69.75c12,.61,22.78,3.45,32.67,9.31a38.4,38.4,0,0,1,14.51,15.37A46.49,46.49,0,0,0,135,75.62c3.62,3.87,7.31,4.91,11.81,1.67a6.34,6.34,0,0,1,1.83-.56c0,8.52-3.76,12.26-11.86,11.16-3-.41-3.46.09-3.79,3-.91,7.74-5.15,13.34-12.71,15.56-7,2.06-13.39.77-18.55-5.08-3-3.41-3.08-6.26.06-9.52,3.52-3.66,8.49-5,11.46-2.93,2.53,1.81,2.4,5-.39,7-.84.62-2.6.52-1.92,2.18.52,1.28,1.82,1.76,3.24,2,7.51,1.16,13.83-3.76,14.85-11.92.72-5.8-.64-11.12-5.4-16.56.5,5.61,1.08,10.17-2.24,14.26-2,2.49-3.3,2.23-5.13.39-4.56-4.62-6.52-10.5-4.9-16.48,1.92-7.08-1.16-11.08-6.24-14.69-.55-1.37-1.82-1.84-3-2.49C95.83,49.06,88.81,48.92,82,47.86,63.82,45,47.13,48.93,31.55,58.21c-1.83,1.09-5.44,2.31-3.94,4.76,1.75,2.86,4.31,0,6.3-1.21,16.33-9.52,31.93-10.28,48.51,1.86,4,2.95,8.09,6.42,13.62,6.47C94.9,73.89,91.56,75,88.35,76c-1.56.51-3.18.72-4.32,2-8,.07-16.13,2.48-23.83-2-3-1.72-6.5-2.7-9.39-4.39-16.05-9.41-33.5,1.59-42,13-.6.8-2.2,1.69-1,2.89s2.26,0,3-.84c2.24-2.84,5.49-4.26,8.39-6.15,10.62-6.92,30.06-8.65,40.19.68,2.86,2.64,6.27,3.41,9.94,3.85,2.68.32,5.33.9,7.91,1.36-.26,3.1-5,2.2-4.27,4.16,1,2.44,4.52,2,7,2.45.13,2.44,2.43,3.37,3.54,5.13a12.92,12.92,0,0,1,.5,13.86,10.24,10.24,0,0,0-2,1.5c-3,3.65-5.46,3-7.75-.74-3.42-5.55-9.76-6.57-14.91-9.4-1.7-.93-2.9-.21-3.43,2.09-1.11,4.75-4.28,6-8.46,3.47a22.84,22.84,0,0,1-9-9.07,11.44,11.44,0,0,0-5.64-5.4c-8.44-3.85-16.67-3-25,.56-2.72,1.15-4.44,4.16-7.78,4C.08,67.36.12,35.64,0,3.93,0,1,.39,0,3.73,0,18.17.24,32.62.1,47.07.1c1.74,6.06.82,11.63-3.81,16.55,11.47,2,16.89,7.52,12.22,16.76-2.38-3.69-4.56-7.72-9.39-8.2-6.72-.67-13.37-.28-19.05,4-6,4.47-10.39,10-11,18,3.12-2.92,5.79-5.93,9-8.26,2.86-2.1,6.39-4.76,9.74-1,3,3.39,1,6.44-1.77,9-.13.11,0,.55.09,1,.47,0,1,.13,1.39-.09C53.64,35.54,75.07,33.62,97.09,34a66,66,0,0,1,28.39,7.22C128.26,42.59,130.55,45.1,134,45.14ZM282,116.06c.74-.11,1.59-.09,1.54-1.2,0-.11-.2-.3-.31-.31-1.12-.08-1.08.8-1.22,1.52l-.23.42ZM22.74,84.67l0,1.4c3.37,0,6.75,0,10.12,0,2.89,0,5,.62,5.38,4.31a10.69,10.69,0,0,0,5.14,8.15c1.62,1,4.07,2,3.64-1.76-.36-3.15.5-4.44,4-3.84,1.87.32,4.93,1.18,5.51-1.67.54-2.62-1.73-3.93-4.18-4.66-.91-.26-2.67-.79-1.32-2.36,3.59-4.16-.53-3.25-2.2-3.06-5.82.63-11.46,2.73-17.47,1.93A17,17,0,0,0,22.74,84.67Zm54.68-14.5c-5.75-4.83-16-7-26.24-5.62C61.35,70.66,70,72.51,77.42,70.17ZM192.06,90.83c9.41,7,22.12,7.45,29.48.94-3.06.74-5.41,1.36-7.78,1.89-2.61.57-5.9,1.42-7.65-.34-2.78-2.81-5.8-2.12-8.9-2.24C195.74,91,194.27,90.94,192.06,90.83ZM166.4,97.7c-2.84,3.9-6.45,5.92-8,9.74-.38,1-.65,2,.08,2.83.9,1,1.83.06,2.68-.28C166.08,108,167.5,105.07,166.4,97.7Zm86.9,19c0-.1,0-.26-.07-.3a.84.84,0,0,0-.37-.08l.1.52ZM156.8,66.25a1.4,1.4,0,0,0-.15-.42s-.24.06-.36.09a1.15,1.15,0,0,0,.14.43S156.67,66.29,156.8,66.25Z" transform="translate(0)"/><path class="cls-1" d="M77.06,368.94c-11.64-10.85-18.56-24.42-22.73-39.56a48.7,48.7,0,0,1-1.25-5.31c-.35-2.22-1.25-3.05-3.69-2.77-7.22.85-12.13-3.44-12.31-10.49-.1-3.64-.79-6.86-4.41-8.79-1.7-.91-2.54-.76-2.56,1.21,0,2.41-1,3.84-3.55,3.75a5.43,5.43,0,0,1-5.33-4.43c-1-3.9.55-7.36,3.35-9.93a8.68,8.68,0,0,1,9.22-1.92,23.47,23.47,0,0,1,14.06,11.82c.8,1.54,1.14,3.42,2.92,4.62,1.24-7.64-.82-15-1-22.35-.06-3.77-4.75-5.7-6.4-9.18-.36-.74-1.49.13-2.25.36-9.55,2.94-16.86-.11-21.82-9.06-1-1.89-2.1-3.78-3.17-5.65-4.25-7.47-7-10.7-16.1-6.24V238C24.6,228.9,37,243.91,47.6,262.4c-2.2-14.85-9.66-26.53-20.14-36.39-5-4.67-10.35-8.91-17.94-8-2.93.36-6.83,3.24-7.56-2.73,0-.16-1.23-.18-1.88-.26V191c8.67,2.86,13.07,10.73,19.57,16.32a23.55,23.55,0,0,0-15-.24c11.16.8,19.33,6.92,26.74,14.64-.37-5.16-3-9.07-5.2-13.22-2.86-5.32-8.33-8.17-11.41-13.46S10.84,184.21,9,178.65c-1.71,3.84-.63,7.75-.24,11.78-3.47-1.51-5.38-4.59-8.72-5.38v-14c2.6-.67,3.77-3.4,6.54-4.14,5.22-1.4,6.07-1.12,7.64,4.07a12.58,12.58,0,0,0,3.36,6c4.6,4.08,8.66,8.56,10.72,14.45,2.47-.46,5.78-6,6.52.37,1,8.33,3,16.62,2.26,25.13-.22,2.35.76,4.43,2.29,7.14,1-5.1,4-7.14,8.07-8.37,3.68-1.12,1,1.65,1.65,2.33.26,2-.82,4.22.95,6,.61,4.62,1.34,9.24.92,13.93-.66,1-1.32,2-2,3.06-1.24,1-1.25,2,0,3,4.63,10.63,4.26,22,4,33.86,3.69-1.84,3.85-5.38,5.89-7.58,10.06-10.86,19.4-9.87,29.44-1.39,1.53,1.3,2,2.46,0,4-6.5,5-13.19,9.13-21.91,9.28-7.33.13-11.13,4.38-11.38,11.75-.66,19.77,2.71,38.73,13.41,55.65a58,58,0,0,0,19.09,19.06,6.5,6.5,0,0,0,2.43.36c.25,2.1,1.23,3.38,4,3.66-1-2.3-2-3.52-4-3.67,0-1.48-.94-2.4-2-3.32-9.31-8.51-14.42-19.19-15.94-31.57-.58-4.8.91-9.53,1.5-14.29.63-5.06,1-10-3.19-13.89A5.86,5.86,0,0,0,67.09,304c-1.21-.13-3.07.74-3.47-1s1.38-2.54,2.51-3.4c4.65-3.55,8.2-3.39,13.16,1.49,2.22,2.19,3.28,1.86,5.18,0,9.18-8.74,26.23-8.18,31.19,9.18,1.2,4.19-.93,8.47-4.89,9.58-4.37,1.21-10.34-1.22-11.49-4.69-1.22-3.65,1.62-5.58,7-4.72-1-7.43-7.08-10.72-14.53-7.79s-13,9.63-11.26,20.33c1.42-5.4,4.83-7.93,8.61-10s5.59-.92,6,3.31c.55,5.93-2.27,10.73-5.86,14.9-7,8.17-8,14.16-1.85,23.05,6,8.68,13.88,15.39,22.34,21.69C120,383.7,131.59,387.4,144,389.46c.33.05.63.27.95.3,2.44.2,6,.93,6.36-1.87.34-2.51-3.39-2.66-5.5-2.8-8.84-.55-17-3.1-24-8.39a34.71,34.71,0,0,1-12.91-18.94,55.67,55.67,0,0,0-8.32-18.39c5-1.1,9.39.8,13.49,2.29,10.24,3.73,17.64,10.33,21.31,21.22,4.53,13.44,16.3,21.05,30.53,21.11,5.31,0,10.65.38,16.35-3.75-6-.58-11.17-.19-16.2-1.15-14.34-2.73-24.6-9.93-29.2-24.28-2.14-6.65-6-12.16-12.3-15.57.18-.36.32-.87.46-.88,4.77,0,6.37-.9,3.88-6.35-3.38-7.42,1.71-18.2,11.65-17.09,2.43.27,3.8.78,3.54,3.46-.49,5.26,2.09,9.64,4.24,14.11,1.57,3.26,2.69,6.65,7.75,3.27,3.85-2.58,6.14,1.26,7.39,4.31a19.48,19.48,0,0,1,1.15,12.67,6.92,6.92,0,0,0,.2,4.83c4.6,11.06,17.3,20.48,31.16,16.52-2.12-2.3-4.87-3-7.25-4.24a38.81,38.81,0,0,1-11.33-8A15.23,15.23,0,0,1,173,351.1c0-5.63.71-11.28-.83-16.88-2-7.47-5.4-8.79-11.38-4.16-1.69,1.31-2.39-.32-3.11-1.21-2.9-3.61-1.79-10.11,2.12-12.94,3.32-2.4,10.67-1,13,2.71,1.15,1.8,2,3.79,3.18,6.05,3.9-3.45,6.55-8.66,12.68-7.54a11.49,11.49,0,0,1,8.49,6.28c-5.05-.05-9.92.22-12.83,4.08a26.94,26.94,0,0,0-5.38,15.68c-.27,8.15,1.87,14.95,9.17,21-.94-4.24-1.64-7.47-2.37-10.7-.14-.65-.45-1.27-.54-1.92-.53-4.31,1.94-8.46,5-8.47,3.65,0,5.6,2.9,6,7.63.3,4.05-1.59,7.44-2.63,11.05-1.29,4.44,1.46,7.1,3.8,9.62s5.1,1.77,8.19.17a43.57,43.57,0,0,0,12-9.54c4.38-4.75,10.18-5.91,16.1-6.87a2.27,2.27,0,0,1,1.82.47c.63.79,0,1.53-.63,2.13-3.26,3.37-3.87,7.48-3.79,12,.11,6.12-2.61,9.43-8.33,11.5-2.65,1-3.41-.22-3.56-2.4-.36-5.24-.43-10.39,4.54-14a3.88,3.88,0,0,0,2-3.54c-7.29.83-9.16,6.67-11.11,11.89-2.51,6.73-4.46,13.53-11.52,17.23-4,2.1-4.69,1.93-5-2.55-.29-4.23-2.38-5.36-6.27-3-8.43,5.19-17.41,9.27-27.24,10.23-18.06,1.77-36.19,2.64-53.27-5.58-11.17-5.38-21.92-11.44-31.54-19.36A12.55,12.55,0,0,0,77.06,368.94ZM37.07,264l.41.23-.41-.23C35.24,253.55,22,243.4,13,246.33c6.61,1.38,12,3.7,15.5,9.06-1,1.19-2.63-.07-3.29,1.42,1.3.31,2.5,1,3.67,1.29C32.42,259.08,33.25,263.61,37.07,264ZM166.68,373.6a51.05,51.05,0,0,0-5-6.29c-2.74-2.62-4.43-4.82-2.2-8.92,1.13-2.07.64-5.2.36-7.8-.22-2-2.28-3.88-3.54-1.47-2.23,4.28-3.82,3.1-6.33.57-1.24-1.24-3.23-2.45-4.95-1.3-2.06,1.37-.42,3.22.11,4.88.37,1.15,2.14,2.72.68,3.43-5.48,2.69-.28,3.92.8,4.89,2.54,2.27,6.57,2.22,8.81,5.26C158.36,370.79,163,371.88,166.68,373.6Zm-49.59-20.74c.11,6.33,8.33,16.35,15,18.3C129.44,363,125.25,356.47,117.09,352.86ZM66.33,275c2.48-1.09,5.92-.41,8.55-2.45.93-.72,2.63-1.55.78-3-2.37-1.89-10.19-.06-11.6,2.57C62.89,274.23,63.47,275.14,66.33,275ZM197.42,381.72a1.25,1.25,0,0,0-.13.4c0,.05.22.09.33.13a1.3,1.3,0,0,0,.13-.41S197.53,381.76,197.42,381.72Z" transform="translate(0)"/><path class="cls-1" d="M.08,521.94c7.22,0,7.22,0,8,7.34.35,3.33,3,5,4.89,2.86,4.23-4.67,10.22-6.89,14.68-11.23,3-2.95,5.57-5.82,4.09-10.34-.67-2.06-.2-3.4,2-3.51s4.12.47,4.29,3.1c.14,2.28,0,4.58,0,7.14,5.4-1.43,8.4-6.48,13.88-6.93,2.1-.17,4.28-.69,5.41,1.13,1,1.58-.33,3.44-1.33,5-.83,1.27-3.16,2.87-1,4,2.65,1.33,6,2.75,9,.73a3.12,3.12,0,0,0,.37-5.18c-2.9-2.65-2.36-5.16.36-7a6.36,6.36,0,0,1,8.61.78c3.12,3.13,3.74,9.88,1.22,14a31.81,31.81,0,0,1-8.36,9.13c-1,.75-2.86,1.5-1.12,2.92,3.76,3.08,1.13,5.41-.9,7.4a17,17,0,0,1-6.6,4.29c-3.51,1-6.39,1.49-4.72,6.36.67,2-1.57,2.2-3.07,2.08a16.46,16.46,0,0,0-9.07,2.14c-3,1.53-6.07,1-9.23.25-10.3-2.26-19.22,6.93-16.41,17.79,1.43-4.08,4.75-5.89,6.78-8.82a8,8,0,0,1,5-3.06c2.21-.52,5.14-1.33,6.62.53,1.7,2.13-.32,4.38-1.88,6.1a6.23,6.23,0,0,0-1.56,4.56c0,2.19-.29,4.89,2.62,5.06S35,577.79,35,576c0-3.89,2.62-5.67,5.68-6.71A21.24,21.24,0,0,1,50,567.9c3.3.39,5.55-.23,5.11-4.4-.3-2.77,1.91-2.94,3.73-2.41,2.86.84,5.8,2,7.87,4.13,2.3,2.4,4.17,4.64,8,5.07,3.32.37,4.5,9.43,2.48,14.47-1,2.42-3.47,4.18-3.14,7.16h-7c0-1.65,0-3.29,0-4.94,0-5.72-1.86-7.79-8-9.05-.13-1-.36-1.9-1.64-1.81-.21,0-.6.38-.57.5.28,1.17,1.3,1.16,2.22,1.29,3.09,4.17,5.78,8.46,5,14-20.25,0-40.5-.07-60.75.08C.52,592,0,591.41,0,588.67.14,566.43.08,544.18.08,521.94Zm27,14.25c-.06,6.84,5,11.42,11.31,10.7,1.32-.14,3.29-.22,1.75-2.13-2.88-3.57-2-6.21,1.26-8.75a2.81,2.81,0,0,0,1.13-2c-.2-1.28-1.51-1.1-2.43-1-3.65.39-6.46-.1-6.64-4.74,0-1-1.29-1.9-2.56-2.06a1.4,1.4,0,0,0-1.71,1.34C28.8,530.61,26.27,533.2,27.09,536.19Z" transform="translate(0)"/><path class="cls-1" d="M517.94,591.92c-.24-.79-.42-1.61-.73-2.37-2.15-5.22-1.9-5.59,3.62-4.83,2.41.33,4.63-.59,6.77-1.28,4.61-1.48,9.12-3.1,14.08-2.55,2.34.26,3.09-.89,3.28-3.2.68-8.63,5.21-11.26,13.21-8.24,1.48.55,3,4,4.84,1s4.36-6,1.91-10.08-6-7.05-9-10.59c-3.79-4.51-2.11-10.27-4.69-14.92-.74-1.33.87-1.83,2.11-2,3.28-.4,3.85-2.56,3.62-5.38a12.41,12.41,0,0,1,1.3-7.25c2.4-4.35,4.69-4.45,7.73-.35a14.71,14.71,0,0,1,2.57,6.37c.49,2.73,1.23,4.34,4.48,2.83,3.45-1.6,4.41-.56,3.4,3.24a13.71,13.71,0,0,0,2.13,11.26c2.12,3.27,3.92,1.87,6,0,5.16-4.59,8.2-10.65,11.56-16.48,1.51-2.63,1-5.45.32-8.23-.72-3.1-.68-5.76,3.52-6,0,25.33,0,50.65.06,76,0,2.5-.56,3.07-3.06,3.06C570.59,591.88,544.27,591.92,517.94,591.92Zm49.42-37.86c.79-3.51,1.1-6.5,2.16-9.17,1.36-3.42-1.67-4.3-3-6.14-.73-1-2.72-1.14-2.94,0-.46,2.29-3.6,3.74-1.93,6.68C563.22,548.11,564.24,551.15,567.36,554.06Z" transform="translate(0)"/><path class="cls-1" d="M599.92,78.08c-2.57.1-3.07,2.2-3.84,4s-.75,3.84-3.06,6c.31-7.3-2.11-13.2-3.93-19.42,2.32-.72,3.51,1.16,5.14,1.66.95-18.46-8.91-29.5-21.22-34.23a15.46,15.46,0,0,0-14.68,1.7,54.83,54.83,0,0,1-15.46,7.4c-3,.85-6.88-.86-9.37-3-1.84-1.6.53-3.92,1.28-5.86,3.38-8.66,9.54-14.49,19.58-17.85a54.69,54.69,0,0,0-15.09-2.33A22.56,22.56,0,0,1,518.94.1c25.91,0,51.82.06,77.74-.08,2.75,0,3.33.54,3.32,3.32C599.86,28.25,599.92,53.17,599.92,78.08Z" transform="translate(0)"/><path class="cls-1" d="M339,.1a138.54,138.54,0,0,1,1.94,25,19.84,19.84,0,0,0,7.19,15.71c-7.11.75-12.53-1.95-18.13-3.71l-.42-.22.42.22c-.25,4.12.56,8.28-.82,12.38a16.18,16.18,0,0,1-1.83,4c-2.41,3.53-5.35,7.33-9.81,6.29-4.74-1.11-6.88-5.38-6.55-11.84-2.37,6.2-5.58,9.69-10.74,11.71-4.42,1.73-9,3.47-12.47,7.12-2,2.12-2.75.36-3.53-1.19-4.46-8.89-3.92-22.7,4.12-30.46,3.15-3,7.26-5.39,8.66-10l.4-.42-.43.39c-9.33,1.92-18.31,1.66-26.88-3.32C267.15,20,267,18.7,268.6,16c2.68-4.49,6.74-6.7,11.55-7.81,3.68-.85,7.44-1.4,11.17-2.08A12,12,0,0,0,300,.1h11a5.14,5.14,0,0,1-1.15,3.67,28,28,0,0,1-18.47,11.35c-1,.16-2.37-.18-2.48,1.61C301,16.36,310.32,11.91,315,.1h5c1.15,14.48-5.56,24.93-16.6,33.49-5.14,4-10.23,8.4-10.95,15.73,3.42-6,8.83-9.83,14.55-13.18,5.93-3.48,9.8-1.43,10.94,5.59a52.92,52.92,0,0,1,.26,5.32c3.05-5.22,2-9.41-.45-13.33-1.84-2.94-1.87-5.41.44-8.06a20.53,20.53,0,0,0,4.71-11.86c.39-4.28,2-2.92,4.39-1.64,3,1.63,3.6,5.27,6.65,7.68.15-4.06-1.66-6.81-3.38-9.28C328.24,7.26,326,4,325,.1Z" transform="translate(0)"/><path class="cls-1" d="M599.92,203c-9.75-4.36-16.33-1.84-23.57,9.64-1.55,2.46-2.25,2.59-4.37,1-6.28-4.79-6.83-11.26-1.19-17,2-2.07,3.87-4.39,6.85-5.91-13.42,2.9-23.65-1.93-32.45-12.31a12.09,12.09,0,0,1,6.55,0c3.68,1,7.23.92,10.57-1.15a11.25,11.25,0,0,1,6.24-1.34c1.26,0,3,.68,3.67-.68.79-1.69-1.23-2.42-2.08-3.53-4.67-6.18-8.54-12.72-8.19-20.82.34-7.7,7.22-12.59,13.63-9.86,2.42,1,4.36,2.57,4.31,5.48,0,2.69-1.14,5.07-3.86,5.82-3.63,1-2.59,2.81-1.42,5.05a14.28,14.28,0,0,0,4.93,5.54c6.68,4.21,13.57,8.06,20.38,12.05v8c-6.28-2.65-11.22-7.54-18-11.17,1.89,5.48,6.85,6.85,10.47,11.1h-11.3c6.95.21,12.42,4.76,18.83,6.06Z" transform="translate(0)"/><path class="cls-1" d="M382,591.92a7.87,7.87,0,0,0-.48-1.91c-1.58-3-3-5.23,2.56-5.9,4.86-.58,8.82-6.07,8.86-10.21.06-5.54-2.62-9.5-7.63-11.79-2.22-1-4.56-1.8-7.6-3,5.5-3.66,8.32-8.18,7.32-14.45a2.07,2.07,0,0,1,1.14-2.49c3.68-1.61,4-4.61.8-7.54a29.39,29.39,0,0,0-3.73-2.46c7.62-4.63,15.1-1.15,16.46,7.8.49,3.19.86,5.17,4.65,5.32,4.05.16,5.21,2.94,4.65,6.63l-8.46,1.49a36.73,36.73,0,0,1,16.39,10.52c.63,2.27,1.38,4.53,1,6.94-3.05.35-4.43,2-3.88,5.07,0,1.32,0,2.64,0,3.95-.54,2.8-2,5.2-3.45,7.58-1.25,2.11-2.95,3.36-4.72.27-1.09-1.91-3-2.58-4.55-1.27-1.93,1.6-4.58,2.65-5.34,5.44Zm8.39-34.86c6.94,4.7,10.09,10.06,9.85,17.73C406.14,566.63,402.13,559.11,390.37,557.06Z" transform="translate(0)"/><path class="cls-1" d="M.08,103.07A114.79,114.79,0,0,1,13.61,100c12.89-2.09,19.92,5.89,26.33,14.93,2.9,4.09,6.24,6.79,11.59,6.19,2.13-.25,3.41-.94,3.51-3.29.16-4,2-4.88,5.47-2.76,4.2,2.53,5.47,7.18,3.32,12.17-1.39,3.24-6.37,5.6-10.15,4.5a66.46,66.46,0,0,1-7.22-3.09c-.55,4.19-.36,8.43-2.88,12,1.87.72,3.05-.11,3.41-1,1.68-4.39,5.52-3.87,9-4.31,1.58-.2,3.35-.25,3.63,1.61s-.87,3.47-2.92,3.12c-3.48-.6-5.1.19-4.95,4.11.06,1.59-1.68,2.78-3.55,2.95-2.26.21-4.62.1-5.57-2.28s-1.87-2.88-4-1.52c-2.51,1.64-4.75.22-7.59-.75,4.28-3.21,7.66-6.48,7.06-12.16a29.51,29.51,0,0,0-4.88-13.82c-4.53-6.81-10.12-11-19.63-11.21,3.42,3,6.16,5.17,8.71,7.59,2,1.89,3.31,4.08,2.32,7.12-1.35,4.14-5.1,5.35-8.49,2.68-2.36-1.87-3.23-4.49-4.16-7.19-2-5.72-4.41-11-11.92-10.42Z" transform="translate(0)"/><path class="cls-1" d="M306,567.93c-1.16-4.55-3.49-8.54-5.75-12.59-2.83-5.06-2.72-5.12-6.57-.35-2.89-5.88-4.85-12-8.66-17.06l0,0c7.51,1.3,13,6.32,18.81,10.56C314,556,323.47,564.3,330.37,575c3.34,5.18,7.31,10.28,7.62,16.92H325c-2.07-9.21-5.56-17.77-11.57-25.24.27,4.26,1.21,8.4,1.47,12.58s-1,8.47-1.89,12.66H302c2.48-6.79,5.56-13.44,4.91-21C307,569.83,307.16,568.68,306,567.93Z" transform="translate(0)"/><path class="cls-1" d="M599.92,396c-11.85-.35-20,4.91-24,16.15-.79,2.23-1.92,1.78-3.42,1.13-4-1.72-6-8.47-3.89-13.56,1-2.4,2.47-4.61,3.79-7-4.66-2.15-7.4-6.34-10.48-10.2-.89-1.11-1-2.13.2-3,3-2.08,5.79-4.87,9.13-5.91,3.83-1.18,3.78-2.43,2.27-5.48-3.23-6.5-2.18-10.86,3.21-15.47,1.18-1,2.33-2,4-1.39s1,2.24,1.17,3.49c.87,9,9.45,17.25,18,17.25v5c-7.19-.34-14.37-.75-21.56-1-4.05-.12-7.16,1.69-8.31,5.7-.79,2.75,3.08,7.49,6.85,8,7.62,1,15.26,2.53,23,1.27Z" transform="translate(0)"/><path class="cls-1" d="M599.92,105.07c-6.79.87-6.63,7.09-7.74,11.4-1.81,7.07-1.64,14.63-7.11,20.5-1.51,1.64-2.62,3.37-5.14,3.1v0c1.07-5.62-1.55-10.31-4.92-14.05-4-4.44-2.62-8.36-.7-12.71,1.12-2.52,2.6-2.74,4.54-.83,3.72,3.67,7.38,7.26,5.23,13.34-.55,1.55-.08,3.46-.08,6,4.77-6.29,4.61-12.24,2.06-18.39s-3.58-12.32-1.79-18.76c.49-1.74.45-4.45,3.18-4.41,2.16,0,3.35,1.94,4.31,3.71a30.24,30.24,0,0,1,1.36,3.48c3.66-3.2,2.14-9.18,6.81-11.36Z" transform="translate(0)"/><path class="cls-1" d="M82.06.1c.69,4-3.56,6-4,9s4.09,5.3,4.07,9.23c0,5.07-2.57,9.42-7.27,11.22a2.65,2.65,0,0,1-1.87.19c-1-.48-.6-1.37-.2-2.12,1.13-2.14,1.92-4.39.59-6.63-.88-1.49-1-5.61-4.32-1.74-1.24,1.45-2.52.08-3.22-1-3.25-5-7.94-6.74-14.09-6.11C53,7.82,56.52,4.61,56.06.1Z" transform="translate(0)"/><path class="cls-1" d="M101.05.1c.83,3.28,3.5,1.85,5.36,1.91,8.88.27,13.94,6,12.67,14.58-.22,1.5-.51,3-2.31,1.57-3.83-3.07-8.25-1.77-12.46-2-5.4-.36-11.57,1.41-14.42-5.68-.59-1.46-1.67,0-2.32.47-2.41,1.6-4.6.95-7.45-.55C84.83,8.14,88.9,5.84,88.06.1Z" transform="translate(0)"/><path class="cls-1" d="M259,.1c0,2.66.06,5.33,0,8-.26,8.85,6.46,16.31,14.08,18.19a3.59,3.59,0,0,1,1.95,1.4,24.54,24.54,0,0,1-15.22-4.44c-3.68-2.46-7.82-3.6-11.88-5-1.28-.44-3.42.6-3.66-1.58-.22-1.89,1.48-2.8,3-3.62l2.53-1.38C246.34,8.38,244.25,4.77,245,.1Z" transform="translate(0)"/><path class="cls-1" d="M.08,373l2.8.93c4.94,1.61,5.57,8.83,13.28,8.22,4.83-.39,11,2.74,16.27,4.95a21.49,21.49,0,0,1,2.29,1.54c-8.46.32-15.5,3.57-22.92,1-1.8-.61-2.44.59-3.27,1.45A16.2,16.2,0,0,1,.08,396v-7c2.11-.47,4.78-.89,4.72-3.47A5.34,5.34,0,0,0,.08,380Z" transform="translate(0)"/><path class="cls-1" d="M149,22.08c-7.13-1.64-12.7-5.22-14.65-12.69-.95-3.65-4.55-5.62-5.28-9.29h11c0,.16,0,.42.12.47C149.31,5.2,149.93,13.32,149,22.08Z" transform="translate(0)"/><path class="cls-1" d="M599.92,270c-11.71-1.22-13.23-14.46-7.44-23.64,1.65-2.61,2.87-6.74,7.44-6.35Z" transform="translate(0)"/><path class="cls-1" d="M361,.1c-1.64,1.81-3,4.77-3.24,9.51-.34,6.39-6.41,8.39-9.15,13.46-4-5.79-6.57-11.13-2.91-17.69.86-1.53.89-3.51,1.31-5.28Z" transform="translate(0)"/><path class="cls-1" d="M88.06,591.92c-.17-4,3.1-5.72,5.6-7.69s4.91-4,6.17-7c.29-.72.21-1.8,1.31-1.87s1.66,1,2,1.86c1.58,3.69.94,7.5.49,11.28-.13,1.15-.41,2.27-.63,3.41Z" transform="translate(0)"/><path class="cls-1" d="M111.1,586c.16,1.88,1.29,2.19,2.76,1.52,5.44-2.49,11.08-1.42,16.45-.33s10,0,14.69-2.22c0,.67,0,1.33.05,2a8,8,0,0,0-1,5h-20c-3.75-4.16-12.28-4.16-16,0h-2c-.16-3.51,3.14-4.17,5-6Z" transform="translate(0)"/><path class="cls-1" d="M347,591.92c.12-7-2.83-12.71-7-18h0a14.66,14.66,0,0,1,9.33,6c3.41,4.89,7.56,8.54,13.38,10.12.95.26,1.15,1.06,1.28,1.9Z" transform="translate(0)"/><path class="cls-1" d="M599.92,214a11.86,11.86,0,0,0-4.79.84c-2.42,1-5.46,3-7-.76-1.72-4.08.82-8.14,5.13-9,2.22-.42,4.63.23,6.7-1.13Z" transform="translate(0)"/><path class="cls-1" d="M.08,258c1.24,0,2.05.91,3.06,1.4,3.14,1.49,6.07,3.13,4.77,7.31C6.73,270.51,3.69,271.41.08,271Z" transform="translate(0)"/><path class="cls-1" d="M246,591.92c.47-3.63,4.17-5.62,4.32-10.18,3,3.82,7.47,5.33,7.68,10.18Z" transform="translate(0)"/><path class="cls-1" d="M315,591.92l2.52-6.67,1.08.12q.7,3.28,1.39,6.55Z" transform="translate(0)"/><path class="cls-1" d="M599.92,386c-2.15-.37-4.67,1-6.38-1.32a1.3,1.3,0,0,1,.25-1.23c2.15-1.27,4.08.38,6.13.55Z" transform="translate(0)"/><path class="cls-1" d="M501.94,282.1c9.22,6.22,8,13.26,4.91,20.89-2.15,5.32-4.73,10.55-9.81,14.65,9.74-1.38,18.12,5.26,28.35,1.21-3.74,8-9.93,10.94-16.38,13.23-6.67,2.36-13.35.53-20.17-.36,2.75,1.11,5.58,2,8.22,3.37,9.37,4.7,10.61,12.26,3.38,19.93a24.32,24.32,0,0,0-1.5,2c-4.76-1.59-6.41-6.44-9.75-9.53-3.61-3.34-7.23-5.31-12.05-4.3-1.69.36-4,.94-3.87,3.21.16,2.53,2.56,1.53,4,1.54,3.52,0,6.16,1.13,7.39,4.68.67,1.94-.09,3.72-1,5.24-1.09,1.93-2.64.06-4-.07-4.28-.44-9.27-3.49-11.3,3.5-.25.85-1.43.61-2.24.33-9.42-3.17-15.64,2.52-21.36,8.31a72.71,72.71,0,0,0-14.79,21.63c-1.59,3.6-3.39,7.38-2.67,13,4.31-7.91,8.9-14.11,14.79-19.24,14.49-12.61,33.8-7.54,40.42,6.9,4.05,8.84.63,17.69-8.37,21.18-3.11,1.2-5.5.73-7.22-2.27s-.75-5.48,1.56-8c1.4-1.53,7.33-.3,3.73-5.15-2.21-3-8-2.89-10.67,0a19,19,0,0,0-2.68,4.16c-2.16,4.11-4.12,8.29-7,12.05-4.76,6.28-10.19,8.25-17.89,6-1.78-.51-2.72-.58-4.71,1.19-9.47,8.44-3.54,19.13-5.81,29.12,3-.94,3.09-3.2,4-4.76,4.08-7,9.4-12.13,18.15-11.67a8.86,8.86,0,0,1,5.91,14.8c-2.67,2.88-5.41,2.73-6.34-.89-1.19-4.63-3.19-2.21-4.7-.88-2.25,2-2.53,4.89-2.6,7.78-.17,7.26-5.77,11.92-12.71,10.16-2.7-.68-2.11,1-2.54,2.23-2.33,6.89-3.49,14-6,21-4.2,11.39-11.51,20.13-20.37,27.67a125.5,125.5,0,0,1-30,19.41,89.85,89.85,0,0,1-32.06,7.89c-19.92,1.09-38.26-2.91-55.28-13.22l-.41-.23.41.23a24.2,24.2,0,0,1,.83,4.32c.05,1.85,1.19,4.25-1.07,5.34a5.15,5.15,0,0,1-5.55-.91A28.72,28.72,0,0,1,263,524.06a18.27,18.27,0,0,0-.94-2.19c-1.45-7-5.36-11.05-11.12-11,2.33,3.88,7.33,5.92,7.1,11.08a3,3,0,0,1,0,1c-1,2.58,2.43,6.75-2.46,7.84-2.84.63-8.8-4.95-9.45-8.32a25.7,25.7,0,0,1-.91-5.83c.21-4.71-1.12-8.47-5.92-10.58,5.55-2.82,14.88-.6,20.33,5.13,4.33,4.55,9.56,7.41,15,10.08A9.68,9.68,0,0,0,279,522l0,0c16.8,5.89,34.94-10,33.07-22.35a39.56,39.56,0,0,1,0-9.48c.58-6.26,5-8.86,10.42-6.06,1.94,1,2.84.4,3.5-1.15,2.59-6.17,6.67-11.91,5.46-19.18-.4-2.47,1.43-2.55,3.15-2.73,8.79-.89,15.33,7.72,13.12,17.28-1.22,5.23-1.22,5.23,3.86,6.42-1.4,1.46-2.62,2.94-4,4.19-4.56,4-6.35,9.28-8.25,14.93-4,11.92-13.33,18.61-25.14,22.14a53.27,53.27,0,0,1-18.3,1.95c.43,2.83,2.67,2.17,4,2.35,12.92,1.83,25.28,1.28,34.85-9.43a24.41,24.41,0,0,0,5.46-8.81c6-18.7,20.87-27.34,35.79-27.19-5.53,6.42-6.24,14.57-9.12,21.86-4.19,10.63-11.27,18.63-22.59,22.28-4.74,1.53-9.6,2.45-14.41,3.62-1.29.31-3.52.3-3.18,2.35.29,1.7,2.22,1,3.44,1,8.37.31,16.09-2.52,23.46-5.88a84.26,84.26,0,0,0,35.78-31.11A23.6,23.6,0,0,0,393,488.74c.58-4.86-1.42-8.38-5-11.29-5.47-4.45-7.58-10.27-7-17.18.28-3.52,2.31-4.52,5.36-2.27,3.45,2.54,8.19,3.92,8.87,9.37,1-7.86-2.45-13.57-8.3-17.73-4.08-2.9-8.76-3.94-13.56-.91a9,9,0,0,0-3.89,4.37c-.72,1.86-.26,3.13,2,2.53s3.84-.3,4.39,1.85c.65,2.52.21,4.94-2.21,6.64-3.47,2.42-8.95,2.68-11.66,0-3.52-3.44-2.68-8-1.05-11.62,5.71-12.76,18-15.29,29.56-6.38,2.25,1.74,2.94,2.19,5.23-.13,5.05-5.09,11.63-5.93,15.54,1.39-11.26,3.69-10.93,5.59-8.7,19,2.77,16.64-2,29.86-11.82,42.34-1.6,2-3.1,4.14-5.29,7.09,4.48-1,6.54-3.51,8.9-5.64,15.15-13.69,22.7-31,24.79-51.07.79-7.64,1.19-15.15,0-22.78-.89-5.7-4.07-9-10.15-9.35a38.42,38.42,0,0,1-21.67-7.75c-2.58-1.94-2.66-3.23-.62-5.54,6.32-7.14,18.91-10.19,26.72-.88,2.31,2.75,5.24,5,7.58,8.12,0-5.23.25-10.48-.08-15.68a35.1,35.1,0,0,1,2.73-15.07c1.15-2.95,1.24-5.45-.11-8-3.58-6.83.27-13.72-.19-20.59-.15-2.33,2.74-1.72,4.41-1,2.94,1.2,4.11,4.1,6.06,6.65.38-11.58,3.28-22.8,3.1-34.62,2.19-.5,4.19,1.47,6.75,1.82a29.79,29.79,0,0,1,9.29-13.85,10.51,10.51,0,0,0,4.14-7.66c.2-4,3-4.52,6.06-3.61a13.07,13.07,0,0,1,9.25,8.9c5.56-7.11,14.31-8.54,20.26-14.28A17.84,17.84,0,0,0,496,299c.77-1.52.82-2.54-.67-3.85-7.28-6.37-7.15-7.82.64-13.09h5ZM384,517a1.84,1.84,0,0,0,.35-.15c.05,0,.05-.17.07-.26l-.43.4-.22.44Zm-75,4a2,2,0,0,0,2-1,8.37,8.37,0,0,0,2.86-.59c6.3-4,11.53-9.57,18.59-12.47.8-.33,1.3-1.38,2-2.1-.94-1.7-5.55.52-3.52-3.62,1.06-2.14,2.26-5.23.37-6.37s-4.47,1.19-6.36,2.82c-.71.61-.81,1.93-2.33,1.85-.3-.43-.67-.94-1-1.47-.8-1.15-1.09-3.19-3.08-2.56-1.54.49-2,2.23-2.29,3.66a8.17,8.17,0,0,0,1.26,6.67c2.2,3.1,1.29,5.31-1.3,7.72-2,1.84-4.72,3.29-5.13,6.46a2,2,0,0,0-2,1l-.23.4ZM437,407c4-2.51,7.8-5.51,12.64-6.92-1.38-1.74-3.17-.29-4-1.93a17.76,17.76,0,0,1,5.69-5.32c2.21-1.13,4.44-2.23,7.28-3.65-10,.19-20,8.71-21.64,17.8l-.21.44Zm24.75-87.37c.17,12.9-5.74,21.62-13.27,29.72-3.85,4.15-6.48,9.22-7.39,16.64,8-8.48,15.58-15,26.45-15.93-5.44-2.24-10.17.51-16.23,1.52,11.5-12.59,22.3-24.12,39.41-26.87H480.42c2-3.76,6.07-5.24,7.58-10.22l-25,18.67C463,328.36,465.43,324.57,461.72,319.62ZM345.48,518.54c6.61-5.87,12.49-11.08,15-19.48C352.67,501.63,347.29,508.5,345.48,518.54Zm65.65-98.94c-2.18-5.75-7-8-11.38-6-.9.41-2.21.76-2.09,1.83.09.79,1,1.65,1.81,2.19C402.89,420.07,406.9,418.31,411.13,419.6Z" transform="translate(0)"/><path class="cls-1" d="M419,223.06c1.74.18,2-2,4.42-2.64-2.85,6.4-.64,12.25-.4,18.12.48,12-4.9,20.56-14.07,27.59-4.14,3.17-8.58,6.3-10.06,11.94-1,3.69-.3,5.95,3.93,6,3.95,0,3.52,2.19,2.27,4.59-2,3.92-5.26,6-9.8,5.25-4-.67-7.16-4.73-7.32-8.95-.13-3.48,1.16-6.44,3.72-9.63-6.1-.21-11.51-.89-14.68-6.64-2-3.65-.24-6.67.59-11,2.79,6.7,7.22,10.2,13.54,9.29,8.4-1.21,16.15-4.29,20.73-12.15,2.05-3.52,4.5-7,4-12-2.91,3.22-5.33,6.42-8.29,9-2.49,2.18-5.31,5.07-9.18,2.09s-2.46-6.21-.51-9.87c-3.05,1.73-6.23,3.29-9.14,5.23-9.62,6.4-20.64,8.41-31.6,11a107.83,107.83,0,0,1-31.61,2.69A51.19,51.19,0,0,1,298,253c1.52-1,.9-2.62,1.05-4,15.93,9.06,32.9,9.5,50.33,6.28-1.73-1.84-3.92-1.17-5.92-1.25-14.72-.57-28.13-4.11-38-16.11a48.7,48.7,0,0,1-5.1-7.35,19.57,19.57,0,0,0-8.21-7.79c-4-2.13-7.26-.25-10.05,2.9-2.47-7.89.86-12.62,8.74-12.58,2.91,0,4.38.15,4.52-4,.23-6.91,4.09-12.44,10.19-16.08,6.44-3.86,12.58-1.87,18.25,1.57,3.42,2.07,5.52,5.41,3.52,9.8A9.62,9.62,0,0,1,316.55,210a4.1,4.1,0,0,1-3.38-3.25,3.07,3.07,0,0,1,1.89-3.66c.87-.44,1.69-1,2.6-1.55-4.46-3.47-10.2-3.24-13.9.43-6.75,6.67-6.24,15.11,2,24.42-1.89-4.41-.07-8.27,1.36-12.12,1.12-3,2.71-3.73,5.5-1.16,4.35,4,6.13,8.92,6.32,14.59.39,11.31,5.48,17.47,16.46,19.27a90,90,0,0,0,43.7-3.36c8.17-2.75,16.2-6.79,22.67-13,.81-.77,2.3-1.53,1.58-2.76-.83-1.42-2.38-.78-3.55-.14-3.06,1.68-6.12,3.34-9.08,5.2-13.79,8.65-27.58,8.29-41.22-.17a47.27,47.27,0,0,0-12.28-5.32c-3.23-.91-3.83-1.85-1.15-3.85,5.11-3.81,10.64-6.72,17.13-7.47,8.51-1,16.44,1.16,24.19,4.32,18.77,7.63,29.55-1.2,39.33-13,1.08-1.3,2.79-2.45,2.92-5-5,1.84-8.37,5.75-12.55,8.31-11.92,7.28-23.84,9.52-36.53,2.25-6.25-3.59-13-4.3-20.91-3.27,4.74-4.55,2-6.19-1.78-8.42-8.17-4.77-9.3-13.25-3.19-20.17,2-2.22,3.62-2.85,5.93.16,4.15,5.37,10.65,6.87,16.77,8.76,1.22.38,2-.26,2.6-1.61,2.77-6.24,8.61-7.18,13.34-2.16a17.6,17.6,0,0,1,2.9,3.31c4.27,8.36,12.2,8.5,19.7,8.42,7.74-.08,14.57-3.16,19.15-9.91.62-.91,2.18-1,2-2.95-3.82,1.21-7.56,2.34-11.26,3.59-9.81,3.31-18.28,1.62-25.25-6.4-2.27-2.62-5-4.88-7.33-7.43-3.18-3.41-7.25-2.89-11.21-2.65-2.52.15-2.15,2-1.68,3.73,1.07,3.81-.47,4.56-3.88,3.49a8.87,8.87,0,0,1-6.49-9.89c.42-4,4.22-7.15,8.58-7.45,3.26-.23,6.21.84,9.66,1.87a32.82,32.82,0,0,1,.72-11.83v0l1-1,0,0,1-1,0,0c3.48-1.69,7-2.79,11.6-1.53-8.59,5.91-8.09,13.75-3.87,21.35,4.91,8.83,11.69,15.62,23.88,13.88-3.59-3.14-7.73-4.68-10.54-8-2.36-2.83-3.32-5.75-.61-8.36s5.8-1.8,8.29.93a40.37,40.37,0,0,1,6.55,10.53c2.05,4.48,5.84,4.15,9.71,4.28s4.75-2.89,5.5-5.42A59.78,59.78,0,0,0,434,162.05c.19-7,3.26-12.55,9.72-17.7-1.61,7.42,2.47,11.49,5.88,15.8,1.14,1.44,2.58,2.62,2.37,4.71-.35,3.62,1.36,8.12-3.36,10-2.22.87-8.55-7-8.62-10.37-.07-2.78,0-5.56,0-9.14-4.17,6.25-3.69,11.91-.76,17.47s4.48,11.36,3.79,17.7c-.27,2.52-.22,5.5-3,6.22s-3.61-2.29-4.77-4.23c-.41-.69-.6-1.58-2-1.79-1.35,4-2.84,7.91-4.07,12-2.24,7.38-6.88,13.54-10.21,20.36-6.59,6-11.74,13.43-20,19.59C414.64,239.89,418.63,235.73,419,223.06Zm-42.85-11.3c9.45-3,19.18-2.65,29.54-5.68-3.95-1.57-6.62-1-9.21-1-3.36,0-6-.25-7-4.48-.68-2.78-2.94-5.24-5.55-6.85-1.7-1.06-4.41-1.17-3.65,1.57,1.34,4.78-.95,4.85-4.4,4.83-1.54,0-3.81.25-4.28,1.84-.61,2.09,1.38,3.27,3.12,3.85C377.94,206.92,378.14,208.77,376.15,211.76Zm2.62,17c-6.82-3.41-13.69-6.57-21.6-4.74-1.07.24-2.6-.29-2.88,1.27-.3,1.71,1.36,1.39,2.33,1.86C363.77,230.61,371.35,228.35,378.77,228.76Z" transform="translate(0)"/><path class="cls-1" d="M463,52.1a6.88,6.88,0,0,0,4.65,2.61c7.88.51,10.09,5.67,10.6,12.41,3.05-1.55,6-1.16,9.94-.58a21.88,21.88,0,0,0-9.24,18.51c-1.42,2.36-3.75,4.32-3.59,8.58l6.62-7.56a32.7,32.7,0,0,1,9.14-3.42c4.25-.86,4.6,1.23,4.82,4.1.7,8.85-1.63,16.74-7.59,23.45a2.32,2.32,0,0,0-.81,2.51,50.87,50.87,0,0,0,11.13-3.46c8.45-4,20.85-2.66,27,4.89,1.73,2.13,4.33,3.54,6.16,5.89-6.34,1.09-10.2,5.16-13.66,8.82-4.14,4.38-8.62,5.81-15.39,5,3.49,3.11,6,5.53,6.78,9.23.49,2.25.24,3.85-1.52,5.3-4.53,3.72-12.67,4.44-17.76,1.53-5.59-3.21-5.5-3.18-7.11,2.83-1,3.78-.74,7.94-3.19,11.32-4.5-8.39-11.57-13.24-20.28-17.12-20-8.9-28.79-27-34.56-46.62a119.33,119.33,0,0,1-5.2-34c4.13,6.07,7.76,11.47,12.81,16.1-6.32,1.18-6.28,1.15-2.89,6.42,7,10.84,16.55,17,29.77,16.13,4.18-.29,8.83-.6,10.38-5.91h0c2.85-1.2,4.93-2.81,3.36-6.36a3.43,3.43,0,0,1,.24-2.88c3.28-7.66.69-14.1-4.84-19.35C463.93,66,461,61,462,54.27A8.87,8.87,0,0,1,463,52.1Zm-29,52,1,1c.07,5.27,4.36,8.08,7.23,11.49,6.42,7.62,15.59,12.8,19.66,22.58a5.34,5.34,0,0,0,5.58,3.35,20.39,20.39,0,0,1-4-7.57c-1.64-5.1-1.69-5,3.39-4.18a38.48,38.48,0,0,0,8,.27c5.4-.29,10.67-.72,13.43,5.59.54,1.24,2.28,3.33,3.91,1.93s-1.12-2.25-1.48-3.51c-.68-2.35-4.74-4.71-1-7.15,6.32-4.14,12.4-9.15,20.66-9,.8,0,1.12-.52.92-1.64-5.28-.64-10.48-.29-15.32,2.35a60.81,60.81,0,0,1-20.53,7.16c-6.88,1-21.75-2.24-24.49-9.57,5.27-.66,10.58.48,15.78-1,6.38-1.88,10.3-4.85,11.72-10a7.19,7.19,0,0,0-1.83.93c-9.06,9-19.29,9.32-30.51,4.57-4.05-1.72-7-5.06-11-6.66l-1-1-.45-.22Zm63,36.1a6.89,6.89,0,0,0-1.37-1c-.23-.08-.58.2-.88.31.24.37.39.9.73,1.06S496.18,140.4,496.94,140.19Z" transform="translate(0)"/><path class="cls-1" d="M150,489c0-6.51,0-6.39-6.45-4.41-3.43,1-7,1.62-10.52,2.4.34-2.91,3.56-4.74,3-8,.65-1.34,1.31-2.67,2-4,1.4-2.1,1.21-4.49,1-6.78-2.36-28.73,12.21-48.93,33.28-65.71,6-4.77,12-9.67,20.29-13.74a100.18,100.18,0,0,0-8.19,18.88c-2.66-1-1.83-3.61-3-5.06-9.87,8.54-14.87,32.46-.09,44.23,4.2,3.34,9.22,3.32,14.05,4.21,6.1,1.13,12,2.58,15.86,8.19,1.66,2.41,1.89,3.65-1,5.35-8.06,4.72-16.41,6.95-25.67,4.55A11.39,11.39,0,0,0,182,469l-.39-.23.41.22c.75,3.39,3.46,5.18,6,6.95,11.47,8,13,20.38,9.52,31.8-1,3.44-2.59,5.34-5.89,1.5-1.7-2-4.27-3-6.84-3.88-5.66-1.86-11.57-3.42-14.19-10.34-1.64,4.77-3.89,9.09-8,9.56-4.79.54-7.67-3.78-10.19-7.62C150.79,494.46,150.48,491.71,150,489Zm15-70c-3.67,3.39-5.3,8-6.87,12.48-3.23,9.13-4.71,18.92-10.76,27-1.2,1.59-2,3.64-.32,6,.6-3.1,2.88-4.81,4.79-6.8,2.62-2.74,4.23-2.36,5.06,1.42,1.12,5,2.4,10,6.83,13.38,1.47,1.12.84,2.15.06,3.41a19.55,19.55,0,0,0-2.58,5.35c-.79,3.34-2.81,7.06,1.88,10.27-1.64-4.78-.16-8.26,2.41-11.51,1.65-2.08,3.11-2.85,5.69-1,5.21,3.74,11.3,6.37,14.73,12.28a2,2,0,0,0,2.82,1c-2.16-6.2-6.63-10.65-11.77-14.07a42,42,0,0,1-13.15-14c-4.63-7.93-6.66-16.39-2.78-25.74,6.79,15.57,14.55,22.1,25.36,21.23-2.06-1-3.78-1.93-5.58-2.66-8.18-3.34-13.2-9.13-15.83-17.73-2.12-7,.87-13.51,0-20.23a1.26,1.26,0,0,0,.33-.16c.06-.05,0-.17.07-.26Z" transform="translate(0)"/><path class="cls-1" d="M279.39,415c6.7,0,11.91.18,17.12,0,9.38-.4,15.17,6.66,18.74,12.71,1.06,1.81.86,3-1.62,3.45a25.92,25.92,0,0,0-10.36,4.7c-3.26,2.36-7,2.62-11.19,1.72a12.46,12.46,0,0,0,.37,2.29c3.07,7.51,1.31,10-6.79,10.23-5.79.14-10.13-2.53-13.89-6.64l-7.13,14.17c-1.65-9-6.17-14.39-12.38-19-13.82-10.19-18.06-25.21-19.12-41.28-.71-10.85-.6-21.82,2.43-33.4,2.56,5.25,4.76,9.78,7.31,15-5.48-1.67-5.36.61-4,4.23,3,7.88,7.31,14.48,15.31,18.07s15.63,2.06,21.52-3.36c3.86-3.56,7.71-7,13.74-7,4.55,0,5.32,2.22,4.4,5.52C291.71,403.94,288.86,411.19,279.39,415Zm-40-17.52c2.22,8,5.18,15.24,10.2,21.49a14.87,14.87,0,0,1,2.65,5.12c1.18,3.62,1.19,8.06,5.09,10.54a2.59,2.59,0,0,0,.17-2.7c-.69-2.27-1.4-5.31,0-6.68s3.67,1.21,5.64,1.79a25.56,25.56,0,0,0,4.29,1.18c4.76.54,9.06,1.51,10,7.3a1.48,1.48,0,0,0,2,1c.1-.14.26-.26.27-.41a3.36,3.36,0,0,0,0-1.44c-1.94-4.76-.19-6.73,4.72-7.82A57.58,57.58,0,0,1,300.7,425c-7.27-4.52-13.74-2-20.35-.78-11,1.95-25-1.19-30.87-13.53,9.63,4.2,18.66,5.32,26.87-2.43C261,415,248.85,411.12,239.36,397.43Z" transform="translate(0)"/><path class="cls-1" d="M498.93,451.92c4.2.93,7.89,3.55,8.59,7.35.73,4-3.07,6.54-8,8.13,11.51,1.67,11.49,13.92,20.46,17.67-6.41,4.67-12.68,7.86-20.08,6.73s-12-7.22-18.67-10.56c4.95,8.95,2.21,17.81.69,26.65-2.06.12-4.12.21-6-1-.89-1.59-2-2.87-4-3-2-4.91-3.56-10-6-14.71-5-9.44-13.12-10.63-24.13-8.61-6.62,1.21-11.87,5-16.19,10.46.5,1.56,2.65.85,3.57,2.47-3.91,3.46-9.16,5.39-12.27,9.81a1.57,1.57,0,0,1-.81-2.27c6.29-14.66,12.86-29.19,24.7-40.42,8.1-7.68,17.22-13.16,28.88-13.85,6.7-.4,12.51-3.8,18.2-8.82-.08,4.13.46,7.34-.64,10.58-.77,2.26.16,3.48,2.67,3.42C492.94,451.89,495.93,451.93,498.93,451.92Zm-27.07.49c-4.18.58-32,19.08-33.81,22.76,13.7-5.39,25.59-4.36,34.65,8.17-3.42-9.84-11.48-12.57-21.53-14.14,5.87-3.22,10.65-4.73,16.17-4,9,1.19,15.91,6.23,22.39,12.06,3.78,3.39,7.83,6,13.38,5.26-6.41-2.23-10.45-7.3-15-11.79-2.28-2.24-1.76-3.5.08-5.7,2-2.4,4.88-2.76,8-4.21-3.38-.51-4.88-.91-6.31.39-5.33,4.85-10.83,3.54-16.45,1-2.56-1.14-7,1.53-7.59-1.87C465.35,457.79,469.05,455.31,471.86,452.41Z" transform="translate(0)"/><path class="cls-1" d="M476,169.11c.7.9,1.7.89,2.7.95,6.32.38,8.32,2.19,10.58,8.29,1.38,3.71.41,8.83,6,10.37,1.32.36.14,1.85-.87,2.57-3.34,2.38-6.83,2-10.4.72-.15-.73-.16-1.58-1.25-1.49a.42.42,0,0,0-.31.31c-.09,1.09.75,1.11,1.48,1.25-.63,3.31,1.88,5.86,2.13,9,.4,4.94-1.14,9.45-2.33,14-1.07,4.16-1.81,8.11,2.12,11.28,1.37,1.1.79,2.33.11,3.53-4.18,2.37-5.63-.69-7-3.64-.59-1.26-1.21-2.7-2.56-2.79-2.05-.14-1.32,1.94-1.67,3-1.4,4.37-3.31,8.37-7,11.23-2.92,2.25-5,1.39-5.75-2-.52-2.26,2.05-6.19-2.1-6.52-3.74-.29-6.12,2.9-7.78,6.11a15.3,15.3,0,0,0-.94,3c.45,1.17,1.11.8,1.74.76,2.1-.12,4.55-1,5.77,1.56a5.39,5.39,0,0,1-.94,5.65,6.29,6.29,0,0,1-6.19,2.28c-4.56-.63-8.16-5-8.52-10.29a26.93,26.93,0,0,1,2-13.16c.84-1.88,1-2.85-1.55-3.36-3.32-.66-3.83-3.28-3.11-6.23.69-2.8,2.34-5.09,3.92-7.44s4.27-4.6,1.12-7.75a1.63,1.63,0,0,1,.27-2.28c5.13-4,7.57-11,14.7-12.85,10-2.57,11.12-12,8-19.52-.69-1.66-1.64-3.2-3.19-6.19-.06,7-.71,12.43-4,17.11a13.31,13.31,0,0,1-2.86,3.39c-2.24,1.57-4.08,1.54-4.3-1.93-.19-3.12.31-6,2.63-8.27a17.76,17.76,0,0,0,5.33-12c.16-3.19,1.55-2.53,3.5-1.67,3.27,1.45,4.75,4.5,6.68,7.14C473.44,165.23,474.67,167.2,476,169.11Zm-7.16,27c-2.78-.47-4.88,1-7.14,2.07-2.9,1.32-3.34,2.75-.11,4.11,2.61,1.11,2.77,3,2.1,5.32-.49,1.72-1.63,3.84.31,4.95,1.75,1,3.31-.8,4.81-1.83,1.17-.8,1.81-3.32,3.95-1.41,1.57,1.41,3.24,4,5.39,2.19s-.2-4.28-.68-6.42a19.06,19.06,0,0,0-2.61-5.88C473.32,196.81,471.56,195.52,468.79,196.11Zm5.79-11.55c-.74,2.25-1.49,4.5-2.21,6.76-.32,1-.59,2.11.72,2.39,1.67.36,1.81-1,1.83-2.19A45.09,45.09,0,0,0,474.58,184.56Zm6.76,4-.75-.07c.11.1.23.26.35.27S481.21,188.66,481.34,188.58Z" transform="translate(0)"/><path class="cls-1" d="M110,475c.79,6.38-3.68,9.64-7.89,12.88-2.85,2.19-5.56,4.24-5.29,8.34-6.81-2.35-7.32-4-4.18-13.67-2-.17-2.44,1.69-3.17,2.6-5.32,6.58-12.34,9.33-20.51,8.73-4.63-.34-7.71,1.53-10.11,5-1.47,2.09-3,2.67-4.86.94s-.84-3.29.5-4.74c.68-.74,1.43-1.41,2.09-2.15,2.18-2.45,1-3.6-1.66-3.83-3.45-.29-6.93.19-10.38-.89a11.4,11.4,0,0,1-4.24-2.36c-3.24-2.79-2-4.38,1.31-5.53,1.78-.63,4.72-.07,4.88-2.46.18-2.64-2.11-4.36-4.55-5.36a15.36,15.36,0,0,0-4.21-1.37c-1.88-.15-4.56-.67-2.41,3,1.1,1.87,2,5.08-1.17,5.64-2.65.46-6.41,2-8.17-2.33-1.94-4.77.31-10.45,5.32-13.58a20.54,20.54,0,0,1,12.9-2.84c2.29.17,4.21.57,4-3.32-.18-4.13,3.71-4.58,6.91-4.35,1.6.12,3.2.78,4.89.65l6,2c.66,1,1.31,1.1,1.94,0-.09-3.59,1-5.36,4.62-2.88,2.11,1.46,4.52,2.06,6.86,2.84a18.09,18.09,0,0,1,9.23,6.41c4.23,5.73,13,6.84,18.29,2,1.91-1.74,5.16-2.54,5.4-6.43-4.54,1.36-8.82,2.53-13.31,2.07-1.48-.15-3,.12-4.36-.74-1.58-1-4.55-1.09-4.2-3.53s3-3.35,5.37-3.67a7,7,0,0,1,3.89.41c5.76,3,11.64,3.3,18.61.66-1.89,5.77-3.48,10.74-7.37,14.33C108.34,469.94,107.6,472.08,110,475Zm-28,.52c-.86-3.23-3.15-6-5.64-8.72-2.12-2.29-3.91-1.51-4,1.06-.06,3.68-2.4,4.14-4.92,4.9-1.33.41-3.48-.23-3.71,1.69-.19,1.53,1.55,2.53,2.71,3.34,2.31,1.62,4.38,2.84,1.91,6.14-.9,1.21-1.08,3.84,1.86,4C73.44,488,81.94,479.25,82,475.48Zm11-.15c-5.86-.66-8-.55-8.51.48-.37.68-.2,1.57.41,1.69,2.87.56,5.47-.46,8-1.7C93,475.76,93,475.49,93,475.33Z" transform="translate(0)"/><path class="cls-1" d="M453.92,20.13c0,.32,0,.64.05,1l0,7a8.39,8.39,0,0,1-3.88,3.73c-3.93,1.54-7-.61-6-4.82,1.2-5.39-1.95-4.1-4.62-3.53a13.78,13.78,0,0,0-4,1.93c-1.47.89-2.67,2.08-2.4,4s2.18,1.9,3.46,2.3c2.05.63,4.9.61,5,3.22s-2.53,3.64-4.64,4.66c-3.58,1.73-7.42,1.51-11.24,1.51-1.07,0-2.57-.55-3.08.86s1,1.94,1.64,2.81c1,1.29,2.12,2.53,3.06,3.89,1.51,2.19-.14,3.18-1.66,4.35-2,1.55-2.58,0-3.27-1.32a9.71,9.71,0,0,0-9.35-5.51c-8.63.33-16.57-.68-22.53-7.81-.25-.3-.94-.23-1.42-.33-.13-.44-.26-.87-.38-1.31l-.39.26L389,38.1c2.44,7.26,2.28,7.67-5.2,12.8-.71-2.15,1.34-4.77-.95-6.34-1.77-1.22-3.67-2.24-5.53-3.32-4.92-2.87-7.36-7.5-6.12-13.51a5.45,5.45,0,0,0-2-6,25.74,25.74,0,0,1-6.67-9.81c-.8-2-1.21-4.41,2.39-3.36,4.29,1.23,8.23.06,12.08-1.52a13,13,0,0,1,8.76-.5c1.21.34,2.73.81,2.86,2.41s-1.17,2.32-2.32,3c-5.53,3-11.19,1.92-16.84.39-1.21-.32-2.22-1.63-3.69-.76,5,7.11,12.92,10.38,19.94,8.66,2.92-.71,4.6-2.66,6-4.82A16.67,16.67,0,0,1,402.47,8a13.58,13.58,0,0,0,4.39-2.22c2.41-1.64,4.46-2,4.93,1.54.4,3,1.67,2.15,3.22,1.15,3.68-2.38,7.82-2.54,12-2.34,4.77.24,5.56,1.61,3.65,7,7.48-.1,15-.65,21.29,4.06A3.14,3.14,0,0,0,453.92,20.13ZM407,17.61c-11.65,7.84-11.83,13.64-1.16,20.77.55.36,1.12.7,1.71,1,1.1.61,2,2.16,3.49,1.24a3,3,0,0,0,.7-4.07c-2.8-4.06.26-5.29,2.87-6.95.92-.59,2.18-1.28,1.75-2.69-.37-1.18-1.69-.92-2.6-1C409,25.43,405.54,23.75,407,17.61Zm-20.8,10.52c2.61,2.36,5.07,2,7.15,2.8a1.56,1.56,0,0,0,2.28-1.12c.21-1.3-.79-1.64-1.83-1.66C391.56,28.1,389.29,28.13,386.23,28.13Z" transform="translate(0)"/><path class="cls-1" d="M364.24,376c-6,0-9.37,3.58-13.83,4.39-7.48,1.36-16-1.58-20.25-7.76-.73-1.06-1.47-1.94.33-2.65,4-1.58,6.68-4.82,9.72-7.65.94-.88,2.23-2,3.35-2,6.82.06,4.5-2.84,2.16-6-2.18-2.92-1.52-5,1.79-6.69a14.11,14.11,0,0,1,13-.57c3.79,1.78,4.48.59,5.09-2.95.44-2.57-.42-5.76,2.56-8.08,2.71,6.3,8,9.58,13.73,11.6,16.15,5.73,23.43,19,28.82,33.56,3.13,8.44,5.74,17.31,5.32,26.67-2.23-2-4.45-3.94-6.5-6-1.33-1.33-4.13-2.77-.12-4.51,1.05-.45.31-1.72-.18-2.62-4.76-8.92-17.05-16.22-27.05-13-4.52,1.48-7.31,4.37-9.63,8.09-2.67,4.26-5.54,8.21-10.75,9.63-2.91.8-4.75.67-4.83-3.19C356.77,389,357.75,382.12,364.24,376Zm39.7,4,.41,1.29a4.19,4.19,0,0,0,.36-.25c-.22-.37-.47-.72-.71-1.08a32.78,32.78,0,0,0-9.64-11.73c-4.09-3.15-8-6.38-10.37-11.14-.69-1.4-1.51-2.86-3.53-2.67-.3,1.94,1.09,3,1.31,4.45.15,1,.67,2.75-1.33,2.3-6.58-1.48-14.66,3.28-19.73-4.65-.12-.2-.83,0-1.36,0,2.95,7,2.94,6.95-3.5,11-3.43,2.15-7.37,3.2-11.81,5.09a17.86,17.86,0,0,0,14.61-3.12c6.59-4.77,14-5,21.43-4.3,4.29.42,8.61,2,11.48,6.41-6.08,1.31-12.92-1.67-17.63,4.26.73.57.87.76,1,.75a4.75,4.75,0,0,0,1.43-.34c7.09-3.76,14-3.1,20.82.75C399.3,378.22,401.39,379.68,403.94,380Zm-34.83,1.26c2.13-1.14,3.52-1.73,3.48-3.93C370.46,377.51,369.58,378.52,369.11,381.27ZM356.23,356l1.3-.66c-.21-.35-.33-.89-.63-1-.6-.28-1.28-.12-1.38.64C355.48,355.21,355.94,355.57,356.23,356Zm23-3.61-.35-.13-.05.52c.12,0,.27,0,.36-.09S379.24,352.47,379.26,352.36Z" transform="translate(0)"/><path class="cls-1" d="M383.87,280.33c-1.44,4.84-4.54,8.56-4,13.61.79,7.27,10,12.57,16.48,9.25,1.47-.75,2.84-3.9,4.72-1.58,2.12,2.61,3.14,6,.58,9.16-2.78,3.47-6.61,4.77-10.9,5.28-3.5.41-7.6.25-6.89,5.93.26,2.13-1.76,2.18-3.24,1.91a19,19,0,0,1-8.26-3.34c-2.86-2.19-5.06-5.05-9.34-4.85-2.12.1-2.24-2.67-2.72-4.32-1.15-3.87,0-9.8,3.16-18.14a4.93,4.93,0,0,0-3.72,2.17c-.92,1.22-1.8,3.16-3.92,1.76-1.75-1.15-2.11-2.94-1.72-4.86a9,9,0,0,1,2.38-4.32c.63-.67,1.76-1.41.79-2.47-.83-.9-1.89-.28-2.72.23-3.48,2.15-7.15,3.7-6.11,9.4.72,4-2.78,7.17-5.35,10.21-1.6,1.9-3.57,3.68-4.52,5.88-1.88,4.34-3.35,1.94-4.43-.14a12.1,12.1,0,0,1-.12-11.05c1.53-3.25.48-4.35-2.77-4a14.33,14.33,0,0,1-12.88-5.14A8.94,8.94,0,0,1,316,285c-.08-3.13-.47-5.83,4.33-3.54,2.95,1.4,6.48.62,9.81.06,5.07-.84,10.08-1.59,14.59,2.46,2.87,2.57,6.35-.09,9.42-.62,1.42-.25-.39-2.51-.85-3.79-2.14-5.92-.83-10.26,4.22-13.25.81-.47,2-1,2.71-.76,1.14.46.58,1.68.2,2.59-1.14,2.75.64,4.8,1.68,7,.42.89,1.54,2.13,2.23,1.22,3.4-4.47,5.11-.42,6.82,1.41C374.7,281.62,379,281.29,383.87,280.33Zm-5,27c-5.94-5.8-7.14-12.69-4.38-21.67C366.86,296.56,368.83,305.28,378.86,307.3Z" transform="translate(0)"/><path class="cls-1" d="M138.05,178c2.85,8.4-4.6,6.06-9.11,7.87,5.44,2.18,10.28.54,15.08,1.4.8,1.77-2.25,2.33-1.24,4.7,4.22-1.88,8.19-4.47,12.89-5.37,3-.57,4.62-.52,4.35,2.95-.18,2.46,2.58,4,2,6.51-6.42,4.64-7.2,11.42-6.88,18.52.12,2.79,2.6,6-.59,8.14-2.73,1.88-8.7-.72-11.61-3.69-4.3-4.37-2.75-9.41-2.56-14.8-3.86,4.23-8,7.84-13.34,9.64s-11.17,1.09-18.42,1.2c5.34-3.33,9.78-5.66,12-10.48.68-1.45,1.16-3,1.94-4.43,1.3-2.38,5.72-3.78,4.42-6.35-1-2.09-5.34,0-7.94-1-5.54-2.05-11.61-3.18-15.76-8-4.76-5.55-4.54-12.49.67-16.09,2.73-1.89,5.76-2.78,8.73-.43,2.76,2.19,3.16,5.09,1.41,8s.48,3.28,2.12,3.6c5,1,10,2.3,15-.68A11.87,11.87,0,0,1,138.05,178Zm4.69,23.28.07-.39-.54.11c0,.11.07.27.15.34S142.63,201.29,142.74,201.27Z" transform="translate(0)"/><path class="cls-1" d="M492,245.06c4.17-.86,6.23-5.89,12.5-5-5.78-3.46-11.13-4.88-13.37-10.49-1.25-3.13-1.06-6.16-1.11-9.28,0-1,.5-2.4,1.67-1.68,4.85,3,11.21-.63,15.54,4.2,1.33-2.85,1.44-6.51,4.89-6.57,3.62-.05,6.29,2.7,7.63,5.69,1.89,4.2,3.58,5.91,7.52,2.09,1-.94,4.14-1.91,3.3.94-1.89,6.41,1.37,11.78,2.66,17.42,1.74,7.64-.07,14.75-2.59,21.37-3.59,9.41-9.42,17.8-16.34,25.28a8.06,8.06,0,0,1-1.87.93c.63-3.7,2.12-6.84,1.65-10.2a2,2,0,0,1,.31-.88c4.4,1.47,4.26-2.26,4.39-4.42.28-4.71,1.1-9.5-2.34-13.85-3.81-4.82-7.55-8.73-14.5-6.73-2.16.62-4.64.13-7,.15C487.62,252.48,487.13,251,492,245.06Zm8-15-.43-.22.42.24a12.7,12.7,0,0,0,7.6,5.1c9.46,2.7,16,11.5,14.94,20.46-1.85-2.86-3.1-5.95-8-6.33,6.62,5,8.46,11.45,9.47,18.34,3.75-9.43.07-19.39,4.77-29.21-3.24,1.63-3.93,6.91-6.07,4.21-3-3.72-10.14-6-6.88-13.24.34-.74-.29-1.93-1.58-2.51-.08.89-.13,1.67-.21,2.45-.38,3.54-1.06,5.94-5.52,3.24C506,231.07,502.8,230.83,500,230Zm4.62,17.66,10,.8C510.66,245.37,507.68,245.75,504.57,247.68Z" transform="translate(0)"/><path class="cls-1" d="M505,428c5.24.28,10.58-1.06,15.66,1.63,2.39,1.27,3.6-.86,4.32-2.82,1-2.84,2.59-2.61,4.95-1.44,4.4,2.19,6.43,6.07,7.91,10.32.51,1.47.92,2.81,2.25,3.67,4.4,2.85,5,6.06,2.45,10.64a25.54,25.54,0,0,1-10,10.31c2.2,1.18,3.8.18,5.47-.19,1.26-.27,2.85-.66,3.61.77s.85,3.53-.47,4.13c-7.15,3.22-4.76,9.48-5.23,14.93-.39,4.53-5.13,8.32-9.34,8-2.29-.19-3.16-1.09-1.79-3.14,1.23-1.83,2.34-3.63,2.21-5.94-.12-2.15.44-5-3.28-2.43-1.32.91-3,.39-3.25-1.05-.93-6.5-5.77-9.29-11.46-12,4.07-2.11,6.2-5.31,8.23-8.72,4.22-7.05-.11-15.14-8.41-15.75-2.31-.17-5.49,1.85-6.87-1.93C501.22,433.39,503.45,430.83,505,428Zm19.15,13c2.38,6,3,11.3-.4,16.44-.46.69-.84,1.63.09,2.15a1.93,1.93,0,0,0,1.82-.22c2.79-3,4.84-6.26,4.31-10.66A8.59,8.59,0,0,0,524.14,441Z" transform="translate(0)"/><path class="cls-1" d="M68.07,443.92c-1.31-5.15-4.7-9.54-4.39-15.41.12-2.42-4.88-4.15-2.23-8.38,3.21-5.14,8.15-7.51,13.24-9.87a22,22,0,0,1,3-.86c-1.2-2.13-3-1.16-4.42-1.42s-3.54.72-4.12-1.63a4.3,4.3,0,0,1,2.31-5c.82-.49,1.7-.89,2.56-1.34,2,0,4.36.21,3.94-2.86-.58-4.23,1.59-7.24,4-10.19a1.78,1.78,0,0,0,2-2c3.56.17,7.29-.68,11,2-2.35,1.26-4.86,2.31-5.61,4.64-.65,2-4.71,5.91,2,5.53,1.64-.09,1.73,1.36,1.63,2.52a13.29,13.29,0,0,0,5.47,12.57c2.43,1.88.1,2.15-1.2,2.79-3.64,1.78-7.58,2.9-9.59,7.22-4,8.58.29,16.31,9.63,16.69a18.47,18.47,0,0,1,1.9.27c-2.61,9-7.55,11.15-15.21,6.69-1.86-1.09-3.58-2.41-5.38-3.61-2-1.33-3.85-2-5.34.77C72,445.59,69.93,444.33,68.07,443.92ZM80.44,433c-3.53-9.08-.12-15.24,6.09-20.63a10.84,10.84,0,0,0-9.75,6.38C74.7,423,76,428.37,80.44,433Z" transform="translate(0)"/><path class="cls-1" d="M282,269c-10.53-.18-21.07,15.22-18.76,27.21.94,4.86,2.58,9.33,8,11.07a2.21,2.21,0,0,1,1.31,1.35c.23,1.07-.79,1.2-1.55,1.51-7.54,3.1-12.85-1.34-14.86-7.9a19.63,19.63,0,0,1-.29-4c-2.71,1.75-5,3.35-7.39,4.74-3.6,2.08-9.28.33-11.83-3.52-1.54-2.34-.67-9.47,1.68-11.07,2.19-1.49,5-4.5,6.16,1.23.42,2.12,2,3.14,4.56,2.58,3.81-.84,6.72-2.65,8.49-6.15q2.92-5.79,5.81-11.6c2.68-5.37,6.84-9.15,12.82-9.87,6.24-.76,12.57-3.16,19-.07-3.19,1.14-6.13,2.37-7.76,5.65-3.14,6.33-2.07,9.63,4.65,11.21,4.22,1,6.38,3.45,8.26,7.05,7,13.41,15.3,14.85,28.91,11.07-.88,3.22-1.38,2-4,3.08-8.94,3.69-18.48-.25-27.33,2.89-1.41.5-3.2,2.15-4.5.53-1.15-1.44.2-3.14,1-4.6.31-.57.71-1.1,1.34-2.07-9.83-2.43-8.83-10.52-8.89-18-2.67.85-2.32,2.9-3.19,4.16-1.72,2.48-4.19,4.52-7.1,2.92-2.39-1.32-4-3.9-2.45-7.16,1.68-3.61,3.1-7.35,6.65-9.66A3,3,0,0,0,282,269c.13-.14.27-.28.4-.43Z" transform="translate(0)"/><path class="cls-1" d="M317.22,309c-5.45,4.2-7,11.51-13.52,14.63-2.43,1.17-2,3.7-2.51,5.63-1,3.55-1.79,7-4.67,9.68-7.47,6.83-8,15.17-4.91,24.14,1.63,4.65,1.49,5-3.41,4.85-6.54-.23-11.11-4.64-11.06-11.54,0-3.73-1.39-4.21-4.28-3.24-3.51,1.17-6.84-.38-10.24-.59-2.19-.14-2.94-2.08-2.54-4.11.56-2.91.81-6.05,2.15-8.59,1.92-3.65.73-5-2.69-5.93-7.69-2.14-8.77-9.28-6.74-15.7.64-2,1.39-2.39,3-.91,8,7.12,16.73,7.81,26.09,2.84,1.6-.85,3.54-2.18,5.06-1.89,10.1,1.87,16.8-5.5,25-8.76C313.43,309,314.72,307.44,317.22,309Zm-41.87,26c1.76,1.87,2.72,2.57,3.24,3.51.92,1.7-.26,2.88-1.53,3.72-1.84,1.21-3.06-.31-3.49-1.57a7.17,7.17,0,0,1,9.25-8.83c1.87.76,4.08,3,2.42,6.09-.47.88.38,3.21.95,2.46,2.2-2.88,7.94-1.43,8-6.83,0-2.26.86-4.52,1.42-6.76.26-1.05.38-2.41-.74-2.48-4.07-.23-9.21-2.15-11.95.84-3.71,4-8.7,6-12.45,9.64-2.27,2.21-4.58,4.51-4.24,8,.32,3.25,2,5.68,5.55,5.92a12.14,12.14,0,0,0,10.17-4.2c.54-.6.56-1.26-.28-1.5-1.87-.55-1.45-1.7-1.16-3.12C281,337,279.38,335.79,275.35,335Z" transform="translate(0)"/><path class="cls-1" d="M185,579.92c-1.94,0-2.81-1.57-4.1-2.57-7.21-5.58-15-7.59-23.64-3.55-4.31,2-8.88,1.37-13.25.77-2.32-.31-3.29.66-5,1.53-5.65,2.8-11.71,4.78-18.49,7.42a11.82,11.82,0,0,1,4.59-6.95c2.45-1.73,5.16-3.09,6.27-6.15.11-.29.43-.72.65-.72,6.74.07,5.82-5.77,7.5-9.62.93-2.13,1.73-4.51,3.77-5.79,7.7-4.79,9-12.22,8.72-20.37-.35-1.79-.66-3.59-1.93-5l-1-2.94c6.51-.58,12.48,0,15.13,7.34.22.63.76,1.3.66,1.86-1.11,6.61,2.64,6.7,7.81,7,9.37.47,10.33,2.44,6.82,10.32-2.62,5.89-2.69,9,3.81,11.89C188.25,566.55,188.43,572.93,185,579.92Zm-21-17a11.07,11.07,0,0,0,8.75-5.78c1.45-2.43,3.47-5.39,1-8.27s-5.44-3.1-9-1.86c-4.78,1.68-8.26,6.11-12.67,7.31-5.67,1.54-6.46,5-7.66,9.4-1,3.56.47,4.65,3.45,5.72,7.46,2.69,11.39-2.75,16.1-6.53Z" transform="translate(0)"/><path class="cls-1" d="M482,513.94c9.62-3.63,12.28-11.67,13.4-20.76,8.86,2.2,12,8.52,8,16.87-1.46,3-1.74,4.65,2.32,5.39,3.48.64,5.9,3.6,8.77,5.56,1.18.81,1.82,2,.58,3.36-2.19,2.49-3.89,5.84-6.61,7.33-4.47,2.45-3.13,4-.7,7a11,11,0,0,1-1.91,15.93c-1.65,1.3-2.79,2.2-3.9-.83-3.71-10.11-10.55-14.93-21-14.79-4.77.06-8.08-2.5-11.45-5.17a5.47,5.47,0,0,0-4.32-1.47c-7.05.46-14.27,2-21.09-1.41,4.79-1.64,9.48-4.13,14.4-4.71,6.7-.79,10.85-5,15.48-8.86C476.22,515.39,479.39,515.41,482,513.94Zm2.32,5.52c-4.5-.31-11.78,5.39-12,8.16-.17,2.14,9.45,8,11.48,6.68,2.5-1.67,5.05-1.37,7.63-1.33a25.87,25.87,0,0,0,10.11-2.13c3-1.24,6.4-3,5.32-7.15-1-3.74-3.39-5.87-7.87-5.88C493.47,517.8,488.19,519,484.27,519.46Z" transform="translate(0)"/><path class="cls-1" d="M311,118.08c3.69-8.45,10.42-13.78,18.49-17.54A36.49,36.49,0,0,0,334.79,97c1.19-.83,2.69-3.23,4.27-.22.65,1.25,1.3.21,2-.09,2-.88,3.93-1.77,5.93-2.57,4.29-1.73,6-.81,5.93,3.85-.07,3.73.74,5.67,4.64,7.15,6.82,2.58,7.22,5.23,1.87,10.36-2.55,2.44-2.78,4.46-1.55,7.42,1.9,4.57.68,6.55-4,7.13a90.51,90.51,0,0,1-28.25-.87c-6.83-1.3-10.73-6.09-14.6-11.09Zm7.26-3.49c-2.89,5.68,3.77,6,4.18,9.48.15,1.31,3.51,1.19,5.51.69a1,1,0,0,0,.67-.66c.4-4.16,3.27-2,5.18-1.95,2.13.11,4.24.65,6.37.92,3.83.48,6.72-.16,5.82-5.12-.37-2,1.25-2.85,2.5-3.92.71-.61,2.09-.85,1.89-2-.22-1.36-1.65-1.75-2.71-1.74-3.16,0-4.61-1.55-4.65-4.53,0-2.83-1.63-2.36-3.31-1.68-3.67,1.49-7.29,3.07-10.21,5.92-.56.54-1.58,3.27-2.62.2-.47-1.39-1.25-1.88-2.64-1.18-1.67.86-3.39,1.92-3.76,3.75s1.62,1.13,2.56,1.55c1.41.61,2.22,1.63,1.61,3.13-.69,1.69-2.19,1.81-3.8,1.47C318.92,118.46,319.72,116.44,318.27,114.59Z" transform="translate(0)"/><path class="cls-1" d="M307.68,542.84a26.3,26.3,0,0,1,8.78,4.12c5.44,4,9.55,4.1,15.53.66a40.36,40.36,0,0,1,7.75-3.36,6.78,6.78,0,0,1,7.39,1.65,5.3,5.3,0,0,1,.58,5.69c-1,2.38-3.37,3.49-6.14,3.37-2.16-.1-4.32-.05-6.49,0a15.1,15.1,0,0,1-6.89-1.12c6.59,8.56,16.56,9.89,29,4.48,8.49-3.69,11.67-9.13,10.25-17.54,8.86,1.15,9.39,9,1.2,19.71,3.56,1,6.86,2.26,9.45,5,3,3.18,2.92,9.12-.36,12.84-2.21,2.5-7.88,2.77-10.92.51-.9-.67-2.08-1.14-.92-2.69,3.83-5.11,2.07-9.63-4.22-10.08a60.17,60.17,0,0,0-13.92.39c-9.09,1.47-17.45.32-24.09-7.19C318.88,553.83,313.58,548.85,307.68,542.84Z" transform="translate(0)"/><path class="cls-1" d="M110.07,395c-2.15,13.36,10.25,18.44,21,19.95,5.7.8,10.84-1,15.68-3.87.86-.5,2.06-.95,1.8-2.07-.38-1.59-2-1.2-2.93-.89-4,1.32-7.82.89-11.76-.11-3-.77-4-2.71-3.8-5.54.18-3.06,1.9-4.28,4.84-4.54,4.42-.39,8.07,1.73,11.81,3.41,5.67,2.55,10.75,2.74,15.57-1.95,1.76-1.72,3.83-3.72,8.25-3.13-10.15,6.52-13.62,18.47-24.8,22.47a17.9,17.9,0,0,1-6.27,1.28c-7-.05-14-.16-21,0s-9.45,4.39-6,10.3c1,1.78-.15,2.32-1.22,3.13-3.44,2.62-7.41,2.12-10.57-1.37-3.3-3.65-3.47-8.92-.45-12.15a19.52,19.52,0,0,1,9.41-5.22c-8.46-7.87-8.16-16.55.41-19.76Z" transform="translate(0)"/><path class="cls-1" d="M64.09,212A15.84,15.84,0,0,1,66,209.25c3.62-3.43,5.34-6.8,2.12-11.77-2.49-3.84-.26-5.72,4-5.49,2.26-1.51,7,3.4,7.43-2.91,0-.14.52-.38.79-.36,11.37.81,23.55-1.76,32.88,7.65,1.29,1.29,2.34,3.31,1.5,5-2.92,5.7-6.05,11.34-11.84,14.78-.43.26-1,.37-1.31.72-5.3,5.67-12.76,6.95-19.43,9.91-4,1.77-6.2.56-6.39-2.87-.3-5.13-3.77-6.43-7.34-8.21C66.72,214.83,64.3,214.66,64.09,212ZM76.18,209c2.77,2.37,7.28.42,8.12,4.63.77,3.85,3,3.25,5.39,2,1.46-.73,2.64-2.07,4.12-2.71,2.81-1.21,4.21-5.66,8.73-3.37,1.19.6,3.67-1.36,4.28-3.5.34-1.15-.39-1.89-1.61-2-1.53-.1-3.13-.06-3.07-2.28a2.39,2.39,0,0,1,1.49-2.39c2.15-.75,3,.64,3.54,2.4a1,1,0,0,0,1.53.69c.82-.42,1.48-1.65.87-1.95-3.19-1.58-3.65-6.5-8-6.49-1.63,0-4.64-.46-4.67.48-.17,6-3.88,2.37-6.11,2.49-2.49.12-5-.1-7.47.18-1.64.18-3.89,1.2-3.07,3.07C82.22,204.79,78.94,206.56,76.18,209Z" transform="translate(0)"/><path class="cls-1" d="M279,522c6.13-6.53,4.57-13.33,1.43-20.71-2.25-5.28.82-9.51,5.63-9.32,3.24.12,4.69,1.7,5,4.91.43,5.21-1.51,10.06-2,15.12l-.24.4.22-.42c11.6-7.22,10.75-29,1.2-37.4a11,11,0,0,0-8.27-2.64c-.76,0-1.87-.09-2.24-.59-.77-1,.36-1.74,1-2.47,3.65-4.41,8.37-5,13.22-2,2.28,1.43,3.81,3.58,5.9,5.58,2.14-4.33,3.25-9.41,9.11-10.3,4.53-.69,7.86,1,10,4.81,1.82,3.2,1.63,6.27-1.29,9-1.47,1.38-2.53,2-4,.13-3.12-3.88-5.73-1.43-7.58,1.15A14,14,0,0,0,303.48,488c2.57,14.7-5.5,27.6-19.92,32a46.63,46.63,0,0,0-4.57,1.93Z" transform="translate(0)"/><path class="cls-1" d="M441.86,529.91a33,33,0,0,0-3.23,1.22c-.72.36-1.55,1-1.14,1.91a2.23,2.23,0,0,0,1.56.9c8.82,1.16,16,8.16,25.49,7.07,2.37-.27,2.53,1.12,1.08,2.7s-2.76,3.25-6.46,3.78c4.2,1.47,4.93,4.44,6.82,6.44,0,1.66,0,3.32,0,5l-3,9c-4.16,0-9.81-5.28-9.88-10.1-.07-4.65-1.91-8.66-3.15-12.9-.76-3.13-2.61-5-5.95-5.06-3.15-3.42-4.35-4.06-14.49-5.18,1.57-1.35,2.71-2.75,4.18-3.54,10.56-5.71,12-12.56,9.36-24-1.28-5.54-1.05-10.34,1.72-15.27,1.19-2.11,1.67-2.31,3.46-.53,5,5,9.65,9.83,5.43,17.63-1,1.78.73,1.9,1.84,1.85,2.55-.11,4.39,1,6.23,3.22C452.87,516.75,447.71,523.74,441.86,529.91Z" transform="translate(0)"/><path class="cls-1" d="M334,41.14c3.45,3,6.41,5.15,8.1,8.73,1.56,3.3,4.3,5.12,7.85,6.33,5.39,1.83,11.45,3.28,12.27,10.63.07.63,1,1.18,1.62,1.74,2.47,2.37,6.52,4.71-.25,6.86-1.95.62-.81,2.2-.28,3.34a16.87,16.87,0,0,1,1.59,9.7c-.42,2.77-1.68,4.21-4.8,2.79-2.91-1.32-5.66-2.67-7.34-5.61-1.27-2.23-2.84-3.19-5.07-.86s-3.5,1.11-4.35-1.27c-2.84-8-6.34-15.73-3.52-24.62.69-2.17-.39-4.91-2-6.92C335.4,49,334.75,45.53,334,41.14Zm11,18.94-.42-.22.41.23c.11,3.11-.18,6.2.88,9.29s3.65,3,5.92,3.58a1.61,1.61,0,0,0,2.08-1.55c.15-2.27.75-4.75-1.52-6.39S347.44,61.72,345,60.08Z" transform="translate(0)"/><path class="cls-1" d="M420.88,260.53c1.47,3.55,3.31,6.87,3.05,10.74-.29,4.32,1.5,7.73,4.47,10.67,3.82,3.77,6.42,8,4.93,13.69a3.14,3.14,0,0,0,.38,1.91c2.06,4.24,2.7,7.51-3.95,6.59-1.14-.16-1.67.89-1.73,2,0,.83-.07,1.66-.07,2.49,0,4.33-2.3,7.31-5.95,8.95-1.77.79-6.08-5.31-5.95-8.81.15-4.09-.9-5.58-5.15-4-2.32.85-2.92-.52-2.07-2.72a17.31,17.31,0,0,0,.7-9.27c-.62-3.84,1.82-7.09,4.22-9.76A19.3,19.3,0,0,0,419,268C418.79,265.32,419.88,263,420.88,260.53Zm.58,19.17c-1.52,4-2.43,7-3.8,9.75-1.79,3.62,2.25,4.24,3,6.51a1.37,1.37,0,0,0,2.45.1c1.27-2,3.67-3.66,2.47-6.56S423.19,283.76,421.46,279.7Z" transform="translate(0)"/><path class="cls-1" d="M289.24,30.2a12.87,12.87,0,0,1-7.37,5.1C275.14,37.38,272,42.75,268.68,48c-2,3.23-4.56,5.42-8.2,5.62-2.1.11-2.82,1.51-4,2.48-2.76,2.2-5,2.35-5.3-1.77-.21-3.18-1.48-3-3.79-2.24-4.18,1.32-9.78,2.84-11.61-1.7-1.75-4.36,3.18-7.4,7.1-9.32,2.6-1.28,2.35-2.84,1.26-4.83-1.55-2.82-.25-3.37,2.44-4.24,9.07-2.93,17.8-1.95,26.65.87,3.67,1.17,6.64-2.54,10.46-2.31C285.33,30.67,287.18,30.1,289.24,30.2Zm-26.32,6.89v0c-1.32,0-2.65,0-4,0-3,.12-3,2.77-3.64,4.67-.73,2.26,1.53,1.88,2.7,2.57,4.92,2.87,6.34-2.11,9.13-4,.76-.51,1.74-1.3,1.37-2.41s-1.64-.84-2.58-.9S263.92,37.09,262.92,37.09Z" transform="translate(0)"/><path class="cls-1" d="M192.42,474.43a13.05,13.05,0,0,1,8.64.51,15.4,15.4,0,0,0,12.06,0c5.2-2.11,10.38-3.41,15.69-.25a4.36,4.36,0,0,0,2.43.29c4.2-.36,7.19.2,4.48,5.47-.87,1.69,0,2.25,1.52,2.78a14.4,14.4,0,0,1,7,5.35c2.52,3.48,1.81,5.24-2.29,6.43-2.71.79-5.42,1.64-8.14-.09s-4.11-.32-4.56,2.23c-.39,2.28-1.44,3.72-3.57,2.43-6.63-4-14.55-6.23-18-14.7-1.76-4.37-7.56-4.78-11.37-7.24C195,476.77,193.09,476.7,192.42,474.43ZM210.35,480c2,4.07,5.1,6,8,8.06,2.64,1.89,4.37-1.55,6.82-1.49.72,0,.93-1.33.44-2.09-1.43-2.21-2.11-5.17-6-4.57C216.89,480.31,214,480,210.35,480Z" transform="translate(0)"/><path class="cls-1" d="M138,529.93c-1.34.7-2.85,1.66-4.09.21-3.07-3.6-4.2-.61-5.73,1.48-2.32,3.19-4.61,7-9.38,5.34-2.51-.86-2.89-7.76-.37-11.46,2.35-3.45.66-4.3-2.2-5-3.5-.82-2.71-2-1.26-4.71,4.21-7.75,11-11.94,18.69-15.21a8.89,8.89,0,0,0,5.43-6c.85-3.09,3.63-4.65,5.71-6.73,1-1,1.68.17,2.15,1.07-2.89,6.53-7.44,12.3-5.28,20.55,1.18,4.5,2.12,10.18-2.71,14.28C137.19,525.27,138.28,527.85,138,529.93Zm-10.95-14.86c0,1.75.28,3.87,2.39,3.6,2.41-.31,5.66-.11,6.34-3.61.57-2.91.06-6,1.1-8.85.33-.91,0-2.06-1.54-1.73C133.24,505,127,512.91,127.06,515.07Z" transform="translate(0)"/><path class="cls-1" d="M161,282a13.22,13.22,0,0,1,8,2.32c2.79,1.89,4.78,2.85,5.25-2.24.67-7.15,8.32-12.27,15.25-11,3.05.55,4.4,2.21,2,4.63-3.32,3.34-3.59,7.24-3.46,11.5.15,5.09-1.52,9.54-6.06,12.24-2.55,1.5-1.74,3.66-1.9,5.69-.1,1.35,0,3.05-1.59,3.28-1.78.25-1.17-1.56-1.42-2.56a7.31,7.31,0,0,0-6.73-5.76c-4.58-.48-6.64-3.52-8-7.15-1-2.76-2.33-5-5-6.54-1-.57-2.94-1.1-2.55-2.61s2.25-1.7,3.76-1.79C159.31,282,160.14,282,161,282Z" transform="translate(0)"/><path class="cls-1" d="M224.73,384.16c-1.31,5.39-1.28,10,3.45,13.54,1.63,1.22,1.89,3.74,1.86,6,0,4.45-.46,8.91,2.08,13.08,1.58,2.58-1.13,2.27-2.27,2a12.45,12.45,0,0,1-9.32-8.23c-1.63-4.44-3.06-3.65-5.69-1-6,6.09-10.75,7-16.81,3.88-1.74-.9-3.33-2-3.54-3.89-.26-2.34,2.13-2,3.46-2.74a18.35,18.35,0,0,0,6.51-6.7c2.92-4.72,6.16-9.26,12.7-8.59,2.21.23,1.8-1.53,2.33-2.53C220.6,387,221.71,385,224.73,384.16Z" transform="translate(0)"/><path class="cls-1" d="M400.1,541.05c5.41-2.87,8.39-5.9,8.74-11.33.18-2.86,3.32-4.87,5.79-6.55,4.12-2.81,8.38-5.31,10.1-10.51.78-2.37,2.07-1.35,3.16.11,6,8,5.39,13.55-2.33,20.15-1,.83-1.88,1.72-3.09,2.82,5.5,2.23,10.87,4.36,12.44,10.66.3,1.17,1.68,2.51.17,3.62s-1.86-.88-2.84-1.19A36.39,36.39,0,0,0,420.58,547c-3.51.07-6.67.14-9.19-3.41C409.17,540.44,404.8,542.65,400.1,541.05Z" transform="translate(0)"/><path class="cls-1" d="M74,397.94c-3.58-1.76-6.65-1.34-9.32,1.85-3.85,4.58-9.74,2.32-14.44,4.1a14.12,14.12,0,0,1-2.93.48c-1.34.2-2.81,2.35-3.89.54a4.54,4.54,0,0,1,.79-5.54c2.22-2.22,4.11-4.87,7.17-6.08,2.49-1,2.56-2.18.61-3.89a49.78,49.78,0,0,1-4.23-4.24c-4.09-4.61-3.14-13.38,1.72-17.1,1.6-1.23,2.44-.57,3,.9,1.88,5.09,6.2,7.47,10.5,10.12a13,13,0,0,1,6.48,10.56c.1,2.49,1.08,2.27,2.58,2.34C76.66,395.63,76.66,395.63,74,397.94Z" transform="translate(0)"/><path class="cls-1" d="M332,340a10.82,10.82,0,0,1,0,1.88c-.52,2.92-.31,5.79-5.22,3.42-5.38-2.6-10.22-4.64-9.78-11.81.2-3.19-2.34-1.19-3.62-1.44-1.69-.35-4,.61-4.79-1.59-.68-1.9,1.64-2.14,2.57-3.16,3.75-4.13,5.89-9.15,7.79-14.29a19.53,19.53,0,0,1,1.31-3.2c.65-1.11,1.48-2.81,2.88-2.22,1.81.77.34,2.25-.08,3.35-2.48,6.49-.12,11.9,3.49,17.18C328.93,331.69,332.73,334.74,332,340Z" transform="translate(0)"/><path class="cls-1" d="M388,435c-7.31-6.82-15.52-7.1-24.29-3.32-.15.06-.3.14-.45.21-5.09,2.5-9.63.82-14.05-1.85-1.23-.74-.78-1.51-.21-2.45,3.42-5.66,9.48-9.28,14.15-8.37,1.28.25,2.57.53,3.85.8l.44.21L367,420c-.4-3.11,1.31-5.26,3.43-7.69,3.21,6.86,8.4,11.57,14.1,15.87A7.87,7.87,0,0,1,388,435Z" transform="translate(0)"/><path class="cls-1" d="M131.09,125.64c-3.69,8.82-11.17,7-18.24,6.32-1.53-.14-2.14-1.22-1.36-2.45,2.76-4.4,4.79-8.93,10.9-10.72,9.44-2.76,15.11-6.59,16-22,1.79,6.08,2,11.7.12,17.53-1.29,4-.45,8.26-.39,12.41,0,.93,1.1,2,.15,2.77s-2.28.09-3.19-.53A48.54,48.54,0,0,1,131.09,125.64Z" transform="translate(0)"/><path class="cls-1" d="M208.11,469.63c10.53-5.51,13.78-13.53,12.08-24-.53-3.31,2.1-5.47,3.72-7.91a53.5,53.5,0,0,1,4.42-5.17,46.18,46.18,0,0,0,4.77,10.08c2.1,3.21.58,6.37-1.1,8.86s-1.57,3.51,1.13,4.61c1.37.56,2.81,1.61,2.64,3.29-.23,2.27-2.27,1.37-3.6,1.57a26.83,26.83,0,0,0-11.36,4.7C217.29,468.07,213.69,470.66,208.11,469.63Z" transform="translate(0)"/><path class="cls-1" d="M435.09,260.94c-1.66,1.3-2.46,2.25-3.47,2.63-1.51.56-3.35,2-4.64,1-1.8-1.36.31-3,.85-4.33,1.89-4.86,1.12-9.88,1.09-14.82s1.66-9.21,3.28-13.71c-.67,6.35-1,12.34,3.38,17.79a22.9,22.9,0,0,0,8.79,7c5,2.14,7.16,6.07,8.78,10.77.75,2.16.07,2.67-1.91,2.7C444.2,270.15,436.53,271.57,435.09,260.94Z" transform="translate(0)"/><path class="cls-1" d="M122.07,459.93c-1.9-4.06.42-7.68,1.32-11.49-2.4-1.05-6.5.46-6.88-2.72-.35-2.94,3.69-3.14,5.86-4.36,3.78-2.14,5.35-6.26,8.57-8.9,2.56-2.09,4.71-4.66,8.11-5.48l0,0c.05,1.93-1.46,2.88-2.58,4.07-5,5.29-5.57,11.47-3.31,18,1.72,5,3.87,9.49.62,15.06-2.15,3.68-3,4.31-5.53.82-.4-.57-1.43-.68-2.17-1A10.81,10.81,0,0,0,122.07,459.93Z" transform="translate(0)"/><path class="cls-1" d="M123,279c.73,1.72,2.48,2.54,3.89,4-5.83,3.51-11.18,5.35-17.86,2.35-5.91-2.66-12.29-2-18.12,1.37-.8.46-1.61,1.6-2.51.46-.72-.9-.11-1.91.62-2.64,1.76-1.75,3.35-3.8,5.41-5.09a18.25,18.25,0,0,0,7.07-8.72c1-2.32,2.2-3.06,4.47-2.63.25,2.5,1.32,4.9.36,7.75C113.51,272.65,116.12,273.2,123,279Z" transform="translate(0)"/><path class="cls-1" d="M379,152.05a3.43,3.43,0,0,0-3.52,2.28c-1.17,4.43-5.06,3.52-8,4.25-1.61.41-3.53-.31-3.22-2.59.28-2,1.56-3.52,3.81-2.71,3.12,1.12,3.89-.36,3.89-3s-.13-5,3.57-5.22,4.92,2,5.44,5l0,0-1,1,0,0-1,1Z" transform="translate(0)"/><path class="cls-1" d="M133,138.14c-2.13.14-2.49,1.9-3.45,2.94-2.79,3-5.28,2.36-7.42-.55-1.79-2.42-1.77-4.38,2-4.48,1.14,0,2.87.19,3.34-.44,3.06-4.12,6.15-2.57,9.71-.77,1.59.82,3.31,1,2.56,3.22s-2.58,2.34-4.48,1.5A16,16,0,0,1,133,138.14Z" transform="translate(0)"/><path class="cls-1" d="M360.33,411.49c1.4-2.2-.55-5.65,3.08-6.38,2.55-.51,4.11,1.6,2.85,3.9-.55,1-1.86,1.81-2,2.79-.28,3-2.05,3.29-4.44,3.24a6,6,0,0,0-4,1.76c-1,.9-1.65,2.92-3.51,1.64a4.36,4.36,0,0,1-2.05-4.7c.45-1.72,1.18-3.47,3.45-3.74A12.27,12.27,0,0,1,360.33,411.49Z" transform="translate(0)"/><path class="cls-1" d="M176.73,318.7c-1-2.33-2.11-4-4.14-5.05-1.14-.59-3.12-1.66-1.63-3.29,1.31-1.44,3.7-2.52,5-.09,1.71,3.12,2.59,2,4.4.11,3.17-3.24,6.47-2.82,8.07.6,1.36,2.92-.23,5.75-3,4.76C181.57,314.35,179.17,315.91,176.73,318.7Z" transform="translate(0)"/><path class="cls-1" d="M298.3,465.78c-3.05-3.95-6.47-2.65-9.89-2.08-1.37.23-1.78-1.36-2.12-2.4-.65-2,.92-3,2.08-4.14,1.34-1.31,3.13-1.82,4.46-.55,2.48,2.38,4.43,4.28,7.18.18,1.12-1.68,3.23-.58,4.3.68,1.37,1.6.11,2.85-1.36,3.44A7.56,7.56,0,0,0,298.3,465.78Z" transform="translate(0)"/><path class="cls-1" d="M107.11,264c.17-1.5-.69-3.49,1.84-3.89a3,3,0,0,1,3.74,2.38c.61,2.29,1.64,2.5,3.94,2,5.81-1.31,8,1.46,6.37,7.53-4.41.39-7.45-4.22-12-3.37-.25.05-.79-1.3-1.15-2C109.22,265.36,108.72,264.09,107.11,264Z" transform="translate(0)"/><path class="cls-1" d="M303,119.07c2.72,0,5.24-1.53,8-1l0,0c-1.35,3.9-4.92,4.35-8,1Z" transform="translate(0)"/><path class="cls-1" d="M122.88,195.4c-1,3-3.09,3.55-5.43,3.45-.94,0-1.64-1.07-1-1.71C118,195.38,120.27,195.39,122.88,195.4Z" transform="translate(0)"/><path class="cls-1" d="M85.06,291c.12-.95.12-2,1.33-2.26.13,0,.51.38.52.6.09,1.3-.82,1.57-1.86,1.66Z" transform="translate(0)"/><path class="cls-1" d="M139.05,427l1-.75c.3,1.2-.71.49-1.07.73Z" transform="translate(0)"/><path class="cls-1" d="M285,537.93l-.75-1c1.18-.28.48.71.72,1.06Z" transform="translate(0)"/><path class="cls-1" d="M85.05,291l-.36,1.3c-.93-.73,0-.94.37-1.3Z" transform="translate(0)"/><path class="cls-1" d="M110,395l.43-.39-.39.44Z" transform="translate(0)"/><path class="cls-1" d="M286,172l-.41-.22.38.24Z" transform="translate(0)"/><path class="cls-1" d="M340,573.93l-.43-.23.43.22Z" transform="translate(0)"/><path class="cls-1" d="M388,435l.43.23L388,435Z" transform="translate(0)"/><path class="cls-1" d="M561.94,169c-6.61,5.51-14.28,6.62-22.38,4.85-3.47-.76-6.89-.69-10.36-.89-1.93-.11-4.93,1.34-4.61-2.85.09-1.14-1.49-.94-2.44-1.11-1.62-.29-3.23-.66-4.83-1-4.31-1-5.19-3.66-2.36-6.7,3.43-3.66,2.59-6.74.43-10.55-2.7-4.77-2.06-5.78,3.32-6.8,3.95-.74,7.22-1.61,8.29-6.58.87-4,3.5-4.22,7.18-1.51,2.33,1.71,3.66,5.77,7.81,3.4.16-.09.71.17.85.41,4.38,7.06,13.14,10.37,16.12,18.58,1.27,3.49,2,7.19,3,10.8Zm-8-5,0,0c1.41-3.77,1.11-8.22-3.19-8.17s-5.5-2.16-7.65-4.3a47.79,47.79,0,0,0-4.81-4.3c-1.18-.89-3-1.82-3.9,0-2.06,4.3-6,3.81-9.65,4,.25,3.12,4.69,3.52,3.6,7.3-1.37,4.78.47,6.92,5.79,7.44,2.14.21,4.32,0,6.48.1,1.15.06,2.86-.63,2.88,1.62,0,4.38,3.5,2.44,5,2.07,2.58-.63,6.43.11,7-4C555.58,165.26,554.48,164.61,553.92,164Z" transform="translate(0)"/><path class="cls-1" d="M509.94,311c.21-9.59,3.15-17.82,11.3-23.66,1.72-1.23,2.94-3.13,4.48-4.62,1.22-1.18,1.79-4.13,4.51-1.63.84.77,1.39-.47,1.73-1.14a6.87,6.87,0,0,1,2.56-2.29c5.87-4.11,7.93-3.66,10,3.07.82,2.66,1.89,3.49,4.44,3.3s6-.41,7.15,2.25c1,2.48,0,5.68-2,7.78s-1.66,3.51-.12,5.54c4.58,6,3.47,8.39-4.19,9.38-2,.25-5.07-1.07-4.41,3.1.11.74-.93.94-1.55.87-6.29-.66-11.94,2.75-18,2.89-5.7.14-11.37-.72-15.9-4.85Zm36-19.38c-3.22-.5-6.58,2.21-8.47-1.62-2.08-4.23-4.55-3.65-7.29-.73a58.53,58.53,0,0,0-4.61,5.18c-1.09,1.47-1.65,6.07-5.18,2-.18-.2-1.22.17-1.74.47-2.89,1.65-4.36,9.24-2.4,12.11.76,1.1,9.15,2.56,10.48,1.78.4-.23,1-.73.94-1-.53-3.8,2.26-2.72,4.12-2.77a24.3,24.3,0,0,0,10-2.46c1-.5,2.71-1.4,1.84-2.44C540.11,297.86,544.25,295.3,545.94,291.63Z" transform="translate(0)"/><path class="cls-1" d="M543.89,19.89c-3.86,1.94-6.58,4.3-10.13,5.49a14.89,14.89,0,0,0-9.36,8.28c-2.09,4.59-5.58,8.19-11.27,8.61a6.6,6.6,0,0,0-3.83,2.17c-3.6,3.42-4.2,3.29-5.28-1.75-.49-2.26-1.2-2.67-3.33-2.08a21.26,21.26,0,0,1-5.42.47c-2.64,0-6.15.32-6.93-2.44-.86-3,1.83-5.42,4.21-7.28a12.3,12.3,0,0,1,3.1-1.6c2.62-1,4-2.54,2-5.22s-.27-3.69,2.08-4.22c7.3-1.65,14.58-2.69,21.72.75,6.36,3.07,12.18-1.28,18.31-1.48C540.87,19.56,542,18.83,543.89,19.89Zm-20.42,7.58-.55-1.35c-3.48,0-7,0-10.45,0-3.18,0-3.43,3.06-4.11,4.89-.95,2.55,2,2,3.29,2.41C517.94,35.59,518.88,28.36,523.47,27.47Z" transform="translate(0)"/><path class="cls-1" d="M494.23,105.72a19.91,19.91,0,0,1,8.12-6.09,17.06,17.06,0,0,0,8.57-8.54c2.41-5.09,5.21-9.62,11.38-10.78a7,7,0,0,0,2.82-2c2.18-2,4.26-4.2,5.07,1,.36,2.3,2.06,2.21,3.8,1.71a22.61,22.61,0,0,1,7.85-1c4.59.32,5.57,2,3.63,6A11.73,11.73,0,0,1,539,92c-2.38,1-3.22,2-1,4.23,2.54,2.57.86,3.62-1.81,4.64-7.89,3-15.7,4.51-24,1.34-2.5-1-5.17.47-7.59,1.67C501.55,105.42,498.34,106.55,494.23,105.72Zm18.44-7.66a49,49,0,0,1,6.9,0c4.46.69,6.19-2.38,7.91-5.43.66-1.18.92-3-.79-3.28-2.53-.44-5.29-2.2-7.64,1C517.2,92.86,514.47,94.65,512.67,98.06Z" transform="translate(0)"/><path class="cls-1" d="M564.62,502.28c-1.26-6.17-4.81-9.09-9.57-11.8-4.25-2.42-9.44-5.21-9.28-11.83.05-2.35-2.85-2.43-4.43-3.5-.82-.56-2-.93-1.93-2,.11-1.32,1.44-1.26,2.37-1.12,4.26.64,7.19-.88,9.48-4.63,1.35-2.2,4.12-2.57,6.74-2.42,5.27.3,10.24-.51,14.54-4.88.25,9.09-5.11,13.18-12,16.13C572.89,485.21,573.4,490.42,564.62,502.28Z" transform="translate(0)"/><path class="cls-1" d="M507.25,335.69c6.24,1.64,10.86,2.41,14.61-2,1.09-1.28,3.17-.64,4.82-.7,4.63-.17,9.32.63,13.81-1.25,2.43-1,2.69.4,1.91,2.19-1.67,3.8-3.17,7.75-8.18,8.5-1.91.29-3.72,1.26-6.06,2.08,3.93,2.91,7.07,6.1,7.72,10.77.47,3.34.18,6.69-1.9,9.57a33.52,33.52,0,0,1-2.87,3.42c-1.87,1.92-3.1,1.94-3.15-1.18-.07-3.47-2.2-5.76-4.6-7.89-4.72-4.19-11.27-7.33-8.85-15.6.28-1-.56-1.37-1.45-1.61C510.41,341.26,509.47,339,507.25,335.69Z" transform="translate(0)"/><path class="cls-1" d="M531,34.14c-4.52,10.63-.57,19.12,6.45,27.11,3.16,3.58,1.22,8.29,1.26,12.49,0,1.36-1.47,1-2.36.5-5.36-3.07-12.74-4.18-12.44-12.8.09-2.53-1.5-1.86-3.06-1.53s-3.56.59-4.4-1.29c-.73-1.63,1.27-2,2-3,2.39-3.53,4.75-6.93,5.86-11.32A17.88,17.88,0,0,1,530.9,34Z" transform="translate(0)"/><path class="cls-1" d="M573.7,445a5.32,5.32,0,0,1-2.67,5.87c-2.59,1.54-5.56,2.08-8.28,3.71-3.82,2.29-5.84-3.09-9.11-4.39-1.94-.77-.24-3.73,1-5.14,1.89-2.21.79-5.23,2.5-7.41a4.66,4.66,0,0,1,3.68-2.18c1.29,0,1,1.42,1.14,2.37C562.87,446.39,564.89,447.64,573.7,445Z" transform="translate(0)"/><path class="cls-1" d="M568.78,443c-3,.3-4.53-1.79-4.61-4.43-.1-2.9,2.07-4.38,4.9-4.54s4.73,1.1,4.71,3.89S572.53,443.1,568.78,443Z" transform="translate(0)"/><path class="cls-1" d="M546.28,464.67c2.34-4.1,3.19-7.63,5.54-10.45,1.2-1.45,2.53-1.69,3.77-.46,1,1,2.12,3,.72,3.91C553.27,459.75,551.32,463.34,546.28,464.67Z" transform="translate(0)"/><path class="cls-1" d="M561.92,169.06c3.42-.32,4.66,2.33,6.17,4.61-1.92-1.72-7.25,1.16-6.15-4.63Z" transform="translate(0)"/><path class="cls-1" d="M509.94,311c-.33,4.27-3.35,4.34-7.4,4.75,2.34-3.06,4.32-4.77,7.4-4.74Z" transform="translate(0)"/><path class="cls-1" d="M531.9,33.06l.46-.39-.39.46Z" transform="translate(0)"/><path class="cls-1" d="M530.9,34l1-1,.07.07-1,1Z" transform="translate(0)"/><path class="cls-1" d="M579.93,140.07l-.24.42.23-.44Z" transform="translate(0)"/><path class="cls-1" d="M49.32,390.42c-9.42,1.74-17.3,3.72-21.63,12.16-2,3.87-1.6,8-2.55,12-1.11,4.67-4.91,10-7.73,10.07-1.58,0-5.31-7.45-5.31-10.88,0-1.3-.06-2.89.62-3.84,2.55-3.56,4.24-6.57-.68-9.86-1.81-1.2.25-2.23,1.62-2.06,6.05.76,10.76-2.53,15.81-4.92,5.42-2.57,11.5-2.59,17.23-4C47.15,389,47.77,389.63,49.32,390.42Z" transform="translate(0)"/><path class="cls-1" d="M112,584.88c1-3.79,3.92-6.67,4.18-10.92.38-6.22-1.3-11.73-5.31-16.06s-.65-9.07-1.29-13.53c-.11-.75,1-1.19,1.91-1.13,5.32.33,11.69,6.51,11.46,11.74-.17,4,1.18,5.45,5.08,5,1.17-.13,3-.68,3.45,1,.37,1.34-1.25,1.72-2.16,2.35-4.76,3.3-6.76,8.48-9.18,13.38-1.79,3.64-4,6.81-8,8.26Z" transform="translate(0)"/><path class="cls-1" d="M40.06,387c-3.34,0-5.47-2.19-7.63-4.21-4.59-4.26-8.6-9.08-15-11.13-3-.94-.49-2.84.88-3.19,4.3-1.1,4.85-3.28,3.15-7.12-1.13-2.55-.46-5.16,1.9-7.18a22.41,22.41,0,0,0,6.37-8.26c3,5.8,6.4,10.31,4.37,17.1-2.4,8-2.42,16.19,5.36,22.12.43.33.43,1.21.64,1.83Z" transform="translate(0)"/><path class="cls-1" d="M40.09,387l1.29.4-.26.38L40.06,387Z" transform="translate(0)"/><path class="cls-1" d="M112.09,585l-1,1-.09-.09,1-1Z" transform="translate(0)"/><path class="cls-1" d="M583.92,386c2-1.66,3.81-3.21.91-5.8-1.26-1.13-.43-2.3,1.1-2.09,2.27.32,4.67,1.28,5.69,3.26.81,1.58,1,4.14-.55,5.58a7.51,7.51,0,0,1-6.88,1.85c-1.82-.47-.54-1.82-.26-2.82Z" transform="translate(0)"/><path class="cls-1" d="M583.93,386c-.81,0-1.63,0-2.43-.07-1.47-.18-2.48-1-2.42-2.53s1.16-2.25,2.63-2.32c1.74-.08,2.21,1,2.21,2.5V386Z" transform="translate(0)"/><path class="cls-1" d="M291,328a2.56,2.56,0,0,1,0,.49,5.63,5.63,0,0,1-3.83,4.09c-.8.25-1.13-.73-1-1.33.67-2.43,2.44-3.35,4.86-3.23Z" transform="translate(0)"/><path class="cls-1" d="M291,328l1-.74c.29,1.17-.7.48-1.05.72Z" transform="translate(0)"/><path class="cls-1" d="M164,562.92c-1.82,0-3.64.07-5.46,0a4.26,4.26,0,0,1-4.22-4.55,7.77,7.77,0,0,1,4.07-5.85c1-.56,1.63.33,1.51,1.23-.41,3.21.64,5.25,3.94,6.25,1.64.5.46,1.93.15,2.95Z" transform="translate(0)"/><path class="cls-1" d="M167,554.38c0,2-.69,3.27-2.49,3.44s-3.23-.67-3.32-2.77c-.08-1.92,1.4-2.56,2.86-2.87C165.9,551.79,166.65,553.07,167,554.38Z" transform="translate(0)"/><path class="cls-1" d="M148.64,565.35c.6-2.29,1.67-4.07,4.12-4.21a1.06,1.06,0,0,1,1.07,1.34C153.05,564.91,150.65,564.75,148.64,565.35Z" transform="translate(0)"/><path class="cls-1" d="M493.55,520.17c-2.58,3.67-4,7.08,1.48,9.55-3.38,2.36-6.14.56-8.43-.64-1.05-.55-1.84-4.29-1.25-4.78C487.53,522.47,489.48,519.61,493.55,520.17Z" transform="translate(0)"/><path class="cls-1" d="M495.59,522.17c1.76.38,3,1.27,3,2.91,0,1.27-.63,2.75-2.28,2.67a3,3,0,0,1-3-2.77C493.2,523.48,494.62,522.9,495.59,522.17Z" transform="translate(0)"/><path class="cls-1" d="M476.7,527.92c2-2.14,3.85-3.57,6.54-2.43.27.12.55,1,.39,1.23C481.72,529.07,479.23,527.53,476.7,527.92Z" transform="translate(0)"/><path class="cls-1" d="M553.92,164a3.83,3.83,0,0,1-1.51,3c-1.12,1-2.3,1.31-3.52.23a2.58,2.58,0,0,1-.69-3.17,2.65,2.65,0,0,1,3.24-1.59,11.81,11.81,0,0,1,2.5,1.56Z" transform="translate(0)"/><path class="cls-1" d="M520.05,304c1.69,0,3,.41,2.76,2.47-.18,1.49-1.07,2.52-2.6,2.31s-3.3-.86-3.12-3C517.25,303.88,518.76,304.07,520.05,304Z" transform="translate(0)"/></svg>