<svg id="Capa_1" data-name="Capa 1" xmlns="http://www.w3.org/2000/svg" viewBox="0 0 204.08 298.73" fill="#fff"><path d="M180.81.64a4.06,4.06,0,0,0,.51,1c5,5.72,5.28,7.57,1.94,14.29q-14,28.07-27.95,56.11c-1.84,3.69-1.75,3.83,2.33,3.83,11.85,0,23.71.06,35.56,0,4.13,0,7.82.68,9.89,4.72s.68,7.43-1.69,10.85q-44.07,63.81-88.11,127.64a13.37,13.37,0,0,0-2.54,8.1c.11,16.52,0,33,0,49.57,0,5.07,0,5.1,5,5.1h48.68a31.87,31.87,0,0,1,3.79.11,8.24,8.24,0,0,1,7.23,5.53,8.56,8.56,0,0,1-1.85,9.2c-.76.86-1.9,1.41-2.17,2.66H32.63c-.16-1.19-1.17-1.73-1.91-2.47A8.69,8.69,0,0,1,35.83,282a31.7,31.7,0,0,1,3.78-.11h48.7c5,0,5,0,5-5.1,0-16.72,0-33.44,0-50.16a11.66,11.66,0,0,0-2.21-7Q46.86,155.51,2.7,91.39A22.45,22.45,0,0,1,1,88.68,8.64,8.64,0,0,1,8,76c1.45-.14,2.92-.09,4.37-.09,38.88,0,77.76,0,116.65.08,3.5,0,5.38-1.08,6.93-4.25C145.4,52.42,155,33.22,164.62,14c2.32-4.66,4.32-9.52,8-13.35ZM73.85,136c-4.38-.37-8,2-11.74,4.43-2.17,1.39-2.63,2.54-1,4.85,13,18.68,25.86,37.44,38.77,56.17,2,3,2.37,3,4.43,0q11.27-16.32,22.52-32.66Q135,156.87,143.16,145c.75-1.11,1.83-2.27.2-3.51-4.58-3.5-9.41-6.23-15.52-5.42-3.1.41-5.36,1.57-6.8,4.64-3.48,7.38-7.21,14.65-10.92,21.93-2.51,4.91-7.5,6.72-11.93,4.46s-6-7.23-3.58-12.26c1.29-2.72,2.66-5.4,4-8.1.73-1.47.52-2.28-1.32-2.6a38,38,0,0,1-14-5.45A15.7,15.7,0,0,0,73.85,136Zm1.66-42.58q-23.19,0-46.37,0c-.91,0-2.14-.4-2.61.71-.36.88.49,1.62,1,2.32q9.57,13.94,19.18,27.87c2.54,3.69,2.58,3.74,6.28,1.18,13.23-9.12,26.69-9.62,40.41-1.19a17,17,0,0,0,11.21,2.25,7.26,7.26,0,0,0,6.29-4.43c4-8.34,8.18-16.56,12.29-24.83,1.77-3.57,1.57-3.89-2.45-3.9Zm85.84,0h-14c-1.42,0-2.73.18-3.46,1.63q-5.26,10.56-10.54,21.11c-.7,1.4-.29,2.22,1.28,2.45a40.07,40.07,0,0,1,17.94,7.9c1.6,1.18,2.73.93,3.85-.71Q166.63,110.89,176.91,96c1.5-2.17.51-2.65-1.58-2.64C170.67,93.43,166,93.41,161.35,93.42Z" transform="translate(0 -0.64)"/></svg>